<svg width="1000" height="1000" viewBox="0 0 1000 1000" fill="none" xmlns="http://www.w3.org/2000/svg">
<path fill-rule="evenodd" clip-rule="evenodd" d="M205.808 304.61C184.738 309.252 173.465 322.016 174.419 340.272L174.766 347.079L166.876 346.692C147.193 345.687 132.799 363.092 141.903 376.939C144.418 380.729 144.331 381.271 141.21 381.271C126.123 381.271 115.197 392.72 122.134 401.306C127.423 407.804 134.1 410.512 151.268 410.589C164.708 410.666 284.712 406.412 300.407 405.948C330.668 405.019 317.402 388.62 315.321 387.537C313.76 386.763 312.979 385.835 313.326 385.139C317.662 375.16 314.019 367.269 303.701 364.175C301.793 363.634 300.147 363.092 299.973 363.015C299.886 362.937 300.407 361.545 301.187 359.92C308.471 344.294 290.088 323.64 268.932 323.718H261.908L259.913 320.314C251.849 306.467 228.439 299.66 205.808 304.61ZM184.391 337.178C189.853 315.054 213.525 303.45 239.19 310.49C248.208 312.965 255.492 321.397 253.324 326.812C251.503 331.221 259.826 336.172 262.514 332.227C264.595 329.21 275.868 327.663 281.244 329.674C292.43 333.851 299.019 357.136 289.655 359.379C285.059 360.462 293.989 367.037 301.967 368.507C306.736 369.358 308.817 378.254 305.176 382.354C302.835 384.984 303.354 386.067 308.036 388.388C312.805 390.708 316.188 397.825 304.742 399.682C295.551 401.151 142.944 405.174 143.031 405.174C133.926 405.483 112.856 394.267 149.014 384.752C154.303 383.359 154.129 383.746 151.702 378.177C145.545 364.02 156.21 349.787 171.645 351.489C178.494 352.262 178.668 352.34 177.801 355.124C175.98 360.617 183.784 364.562 187.079 359.766C193.755 349.941 198.437 346.46 204.767 346.46C207.715 346.46 206.241 344.604 202.686 343.83C199.218 343.057 190.634 344.527 185.431 346.925C184.044 347.543 182.743 348.085 182.657 348.085C182.05 348.008 183.003 342.747 184.391 337.178ZM209.883 423.972C207.282 426.602 201.559 432.094 197.224 436.194C184.304 448.416 183.09 454.373 192.541 458.705C202.339 463.191 208.842 456.384 217.08 433.177C220.808 422.579 220.982 421.032 217.947 420.026C214.825 418.866 215.172 418.711 209.883 423.972ZM244.739 430.856C241.357 433.719 229.739 447.256 227.745 450.737C224.623 456.229 226.965 461.799 233.034 463.269C242.659 465.667 251.502 452.207 252.543 433.873L252.717 431.166C252.804 428.613 249.074 427.221 244.739 430.856ZM153.783 434.802C151.008 437.896 146.672 442.615 144.158 445.245C135.834 454.141 134.62 458.55 139.736 461.954C148.146 467.523 154.476 461.876 160.026 443.93C165.315 426.911 163.32 424.126 153.783 434.802ZM206.328 440.216C203.987 448.184 195.836 458.086 193.929 455.146C191.587 451.433 195.663 444.239 203.206 438.747C207.368 435.73 207.629 435.885 206.328 440.216ZM273.353 441.609C254.45 455.224 246.387 468.374 253.584 474.021C264.509 482.53 276.042 474.64 278.209 457.08C278.73 453.058 279.51 448.571 280.03 447.024C282.631 439.056 279.943 436.89 273.353 441.609ZM235.549 447.179C239.19 442.847 241.618 444.162 240.231 449.112C238.497 454.992 237.456 457.003 235.549 458.241C230.086 461.722 229.306 454.605 235.549 447.179ZM152.309 451.356C150.488 455.92 144.331 460.097 143.378 459.246C142.684 458.627 144.071 453.29 147.279 448.958C150.921 444.007 154.736 445.322 152.309 451.356ZM271.446 460.174C269.452 465.589 261.821 472.397 259.046 472.551C255.664 472.706 259.654 464.506 266.157 458.163C271.446 452.826 273.787 453.754 271.446 460.174ZM162.02 472.551C150.574 478.817 140.776 495.14 145.719 499.549C154.39 507.285 161.933 501.792 165.315 485.315C166.355 480.055 167.483 475.104 167.743 474.331C168.523 472.01 164.968 470.927 162.02 472.551ZM212.744 472.551C207.802 474.331 194.709 490.034 194.709 494.057C194.709 503.494 211.27 503.03 214.132 493.438C219.421 475.723 219.074 470.308 212.744 472.551ZM209.016 489.879C208.062 494.134 205.201 497.306 202.426 497.306C200.085 497.306 199.825 493.128 204.854 487.017C208.409 482.53 210.317 484.31 209.016 489.879ZM156.21 495.99C153.522 499.162 149.967 499.626 149.967 496.919C149.967 494.985 151.962 489.802 154.65 486.94C157.424 484.078 158.898 492.819 156.21 495.99Z" fill="#537188"/>
<path d="M387.731 828.642C385.282 828.642 385.282 828.729 387.393 833.079C389.757 837.778 393.556 839.344 391.023 841.171C388.49 842.998 383.931 839.17 382.411 837.256C378.696 832.644 377.936 824.987 381.398 826.902C383.424 828.033 387.393 828.033 387.393 826.902C387.393 824.639 379.794 821.681 375.741 822.377C368.649 823.508 373.631 838.126 382.749 842.824C388.913 846.043 395.414 845.695 396.258 842.215C397.356 837.952 391.53 828.642 387.731 828.642Z" fill="#537188"/>
<path d="M544.012 744.505C540.212 735.195 534.64 738.85 537.004 743.809C537.342 744.505 537.342 745.375 535.906 745.984C530.672 748.16 527.548 738.676 527.548 734.76C527.548 732.411 527.801 732.411 531.6 735.108C535.146 737.544 537.51 737.892 538.27 735.978C540.128 730.932 524.93 725.276 520.793 729.453C517.669 732.672 519.273 739.633 524.508 745.375C532.022 753.728 547.473 753.032 544.012 744.505Z" fill="#537188"/>
<path d="M379.287 774.001C387.731 778.438 393.81 775.48 390.348 768.606C388.237 764.343 379.794 759.558 379.794 762.516C379.794 762.951 380.132 763.386 380.469 763.386C381.483 763.386 387.308 768.606 385.029 770.521C382.749 772.435 377.515 769.129 374.813 764.343C371.942 759.21 374.137 756.86 376.332 758.079C378.612 759.384 382.496 759.21 382.074 757.905C381.145 754.946 372.364 752.075 369.409 753.815C365.019 756.512 371.604 769.999 379.287 774.001Z" fill="#537188"/>
<path d="M409.007 875.974C406.981 877.453 407.572 884.414 409.936 887.111C412.3 889.808 415.93 891.548 419.223 891.809C428.089 892.593 424.12 883.631 424.12 883.718C420.321 876.409 413.229 872.755 409.007 875.974ZM414.326 883.631C412.891 880.063 414.157 878.932 416.099 878.932C417.113 878.932 418.463 880.063 419.054 881.891C421.25 888.503 416.944 890.069 414.326 883.631Z" fill="#537188"/>
<path d="M480.857 784.268C485.839 784.616 493.522 785.138 498.757 786.095C509.564 788.009 511.843 786.182 507.96 778.873C505.427 774.088 500.952 772.783 495.464 775.045C484.319 779.656 480.942 776.611 487.359 767.736C496.646 754.772 480.941 758.34 479.928 763.56C479.59 765.126 478.071 768.519 476.467 771.043L473.512 775.567C459.581 775.567 459.665 776.263 458.821 769.39L458.23 764.517C466.758 753.815 475.201 743.635 475.201 739.807C475.201 733.977 467.94 737.631 462.114 746.332L458.737 751.379C458.314 738.415 458.821 733.803 452.151 733.803C450.8 733.803 449.703 735.021 449.871 736.413L451.813 755.12C442.357 745.027 438.811 740.764 436.194 740.764C429.861 740.764 433.998 745.027 451.56 764.952V774.697H435.94L433.576 770.869C427.582 761.124 421.418 756.773 418.632 760.341C417.788 761.385 418.379 762.516 422.178 767.127C429.017 775.219 429.27 774.697 418.126 774.61C407.318 774.523 406.474 774.871 407.741 779.308C409.682 786.182 412.131 787.574 420.067 786.008C426.822 784.703 426.906 784.703 423.276 789.923C419.223 795.84 419.308 798.189 423.614 798.189C429.946 798.189 432.394 792.621 436.954 784.703L450.8 784.181V788.444C450.8 792.621 450.631 792.882 445.565 797.406C440.331 802.104 435.265 809.065 436.109 810.457C437.291 812.458 441.513 811.066 445.565 807.325L449.787 803.41C450.125 806.281 450.8 811.066 450.294 815.156C449.703 819.767 456.626 825.51 457.977 821.507C458.314 820.376 459.159 810.892 459.328 801.408L465.153 806.716C471.232 812.284 475.623 813.764 476.805 810.631C477.396 808.891 469.206 800.103 463.38 796.188C459.412 793.578 459.328 793.491 459.328 788.792V784.094H471.992C477.311 792.621 480.266 798.885 487.527 798.885C492.001 798.885 491.074 795.057 484.91 788.27L480.857 784.268Z" fill="#537188"/>
<path d="M555.579 855.527L548.824 855.614L550.513 851.699C554.228 843.085 546.713 842.302 540.634 850.655C535.484 857.615 536.075 857.093 532.867 857.789L530.165 858.398C530.165 851.699 529.658 851.438 534.724 844.042C539.537 836.908 542.576 830.73 541.732 829.86C540.466 828.555 536.751 829.512 533.711 832.035C529.658 835.341 529.658 835.341 528.899 832.122C528.139 828.555 524.677 826.728 521.891 828.555C521.3 828.99 520.54 831.252 520.287 833.775C519.696 838.996 519.864 838.909 516.234 836.124C505.258 827.511 507.453 840.997 518.514 850.394C519.358 851.177 519.949 852.917 519.949 854.918C519.949 860.226 516.825 859.617 510.239 853.091C504.836 847.697 502.05 846.391 498.419 847.261C495.548 848.045 495.802 849.524 499.263 853.004C503.063 856.832 502.978 857.354 498.588 857.354C490.905 857.354 492.002 861.792 500.023 863.01L503.738 863.532C497.575 874.408 496.984 874.93 498.588 876.235C501.374 878.323 502.05 877.975 508.044 870.319C514.208 862.662 513.448 863.358 519.864 863.358C519.864 872.32 520.118 873.364 517.923 874.582C515.643 875.8 509.311 883.718 509.311 885.371C509.311 887.372 515.221 888.155 517.669 886.589C520.54 884.675 520.709 884.675 520.709 887.981C520.709 891.461 521.975 892.941 525.099 892.941C527.885 892.941 529.152 890.852 529.152 886.502C529.152 882.848 529.067 882.848 533.373 885.11C547.136 892.331 546.291 883.196 532.276 873.19C523.242 866.751 531.347 860.226 540.888 866.229C554.65 875.017 564.022 873.103 552.624 863.88C550.935 862.575 550.344 861.618 551.104 861.618C554.819 861.531 563.262 859.878 564.106 859.095C566.301 857.006 562.586 855.44 555.579 855.527Z" fill="#537188"/>
<path d="M548.655 792.969C541.985 799.842 557.605 815.243 566.47 810.37C572.802 806.89 558.027 783.311 548.655 792.969ZM557.352 802.975C556.339 801.495 555.241 799.233 554.903 797.928C553.974 794.274 558.787 794.709 560.307 798.537C562.418 803.41 559.8 806.368 557.352 802.975Z" fill="#537188"/>
<path d="M451.476 905.383C446.41 907.297 446.663 912.778 452.236 920.609C458.483 929.397 472.668 930.702 472.668 922.61C472.668 914.867 462.114 901.293 451.476 905.383ZM464.394 923.48C461.27 923.654 451.729 913.735 455.866 909.037C458.146 906.427 462.367 908.515 464.731 913.474C466.926 918.086 468.193 923.393 464.394 923.48Z" fill="#537188"/>
<path d="M468.108 865.707C473.005 858.05 451.644 840.91 445.312 847.436C443.623 849.089 443.623 854.048 445.143 857.18C449.28 865.446 464.647 871.102 468.108 865.707ZM458.314 853.7C460.51 856.484 461.269 859.878 460.172 861.009C458.314 862.923 451.56 855.44 451.56 851.525C451.56 849.002 455.781 850.394 458.314 853.7Z" fill="#537188"/>
<path fill-rule="evenodd" clip-rule="evenodd" d="M841.825 53.4371C834.257 64.1093 826.092 85.349 811.952 126.897C799.406 163.782 794.426 175.179 789.746 177.769C777.697 184.504 771.623 206.366 777.001 222.944C787.655 255.477 842.024 242.526 852.479 212.79C854.172 207.92 853.774 200.253 853.774 182.224C874.884 126.586 868.113 142.335 877.473 111.252C887.829 76.9567 879.764 70.8433 867.815 101.409C852.281 141.403 836.249 176.837 836.448 195.901C836.846 223.772 797.513 244.08 789.746 220.457C784.667 204.916 791.937 189.581 803.089 182.018C809.463 177.769 808.666 179.738 822.806 135.6C835.85 94.674 844.115 72.2942 851.385 60.4826C867.018 35.2017 884.941 53.748 882.054 63.902C877.274 80.5831 894.999 76.4387 894.999 56.9597C895.198 42.6615 855.865 33.6476 841.825 53.4371ZM697.439 126.586C692.36 147.412 695.547 165.543 703.911 163.368C708.79 162.124 708.99 161.503 708.99 147.515C708.99 118.193 719.445 97.9897 739.759 88.0425C748.82 83.5874 771.524 83.0693 775.606 87.2138C779.291 91.0476 790.643 88.2499 792.137 83.2767C793.73 78.0961 789.248 79.8577 775.208 77.06C755.592 73.3303 708.591 80.9979 697.439 126.586ZM779.191 109.18C749.717 112.391 730.299 135.807 733.983 163.575C735.875 178.081 743.842 181.085 743.842 167.201C743.842 139.848 753.301 121.924 770.329 116.432C778.195 113.842 777.598 113.945 777.598 116.432C777.598 118.193 778.295 118.505 781.879 118.505C788.352 118.505 794.227 113.117 791.539 109.594C790.344 108.039 789.846 108.039 779.191 109.18ZM840.63 109.801C836.747 112.702 834.755 117.675 836.946 119.229C841.526 122.752 851.882 116.846 851.185 111.045C850.787 108.039 844.214 107.211 840.63 109.801ZM841.825 125.653C840.132 126.69 837.344 127.933 835.751 128.347C830.772 129.487 830.673 129.798 821.511 154.664C811.354 182.432 810.459 191.135 807.57 191.135C800.7 191.135 795.223 197.869 795.322 206.262C795.522 225.119 823.503 219.007 827.087 199.32C827.785 195.694 825.992 192.171 823.503 192.171C821.113 192.171 829.278 171.864 842.821 143.681C850.886 126.897 851.385 125.446 848.895 124.41C846.306 123.374 845.111 123.581 841.825 125.653ZM786.66 136.947C766.744 139.952 758.878 145.961 758.778 158.084C758.679 168.962 765.35 171.034 767.143 160.674C767.939 156.218 770.827 148.965 773.017 146.064C775.905 142.127 781.879 146.582 786.958 142.438C792.136 138.087 794.028 135.807 786.66 136.947Z" fill="#F8A488"/>
<path fill-rule="evenodd" clip-rule="evenodd" d="M471.232 407.157C467.324 408.689 467.916 411.635 472.416 412.814C477.981 414.228 479.994 428.37 474.548 428.37C467.798 428.37 444.591 438.977 436.302 445.812C434.407 447.461 433.579 446.401 428.962 442.63C435.355 435.912 440.21 431.906 430.619 431.906C423.989 431.906 405.872 446.519 405.872 451.94C405.872 453.943 412.74 454.415 416.884 452.647C421.62 450.644 421.146 450.997 426.002 456.183L423.515 458.421C390.953 487.53 368.219 590.531 481.652 605.027C534.698 611.862 575.429 582.163 580.876 532.667L581.705 525.478L588.098 524.653C601.123 523.121 599.347 505.326 586.085 503.204C583.362 502.733 580.994 501.79 580.757 500.965C572.35 469.735 556.721 448.051 546.656 453.118C543.578 454.65 544.051 455.711 549.262 458.657C569.745 470.206 576.613 527.835 560.983 557.769C525.936 624.825 419.843 606.323 412.503 531.842C405.398 459.953 468.627 412.932 530.434 444.044C538.605 448.169 548.314 448.169 554.472 443.926L558.97 440.862L561.812 443.926C571.285 454.062 579.217 446.048 570.101 435.677C558.97 422.949 541.92 418.942 548.551 430.609C553.406 439.212 546.656 441.451 533.395 435.795C528.185 433.555 520.134 430.845 515.397 429.785L506.872 427.898C506.872 424.481 506.991 418.47 506.162 414.11C505.451 410.575 505.57 410.457 509.595 410.457C514.213 410.457 516.463 408.454 513.858 406.804C511.371 405.625 474.666 405.743 471.232 407.157ZM498.228 427.192H487.573V420.238C487.573 412.814 487.809 412.578 495.623 412.107C498.583 411.871 498.228 412.342 498.228 427.192ZM486.033 444.398C482.954 447.461 486.27 461.839 490.296 463.135C495.031 464.667 498.11 452.293 494.558 445.812C493.374 443.69 487.691 442.747 486.033 444.398ZM460.931 460.425C463.181 470.914 476.087 494.13 481.415 504.265L479.165 508.39C476.324 513.457 476.323 518.054 478.928 520.411C489.822 530.192 509.714 550.698 517.884 556.119C527.001 562.011 547.722 560.126 533.04 539.502C526.646 530.427 513.503 518.643 506.399 509.922C503.439 506.151 501.544 504.972 499.057 504.972C495.15 504.972 493.374 507.211 496.097 508.743C498.346 509.922 498.702 515.697 496.807 519.232C493.729 524.889 482.006 518.643 484.73 512.868C485.559 511.218 487.099 509.804 488.282 509.804C491.479 509.804 494.084 505.09 491.598 503.676C490.532 503.086 488.046 499.315 486.033 495.309C477.863 479.045 471.114 467.024 466.495 460.425C461.523 452.529 459.155 452.058 460.931 460.425ZM541.683 512.279C537.421 515.461 541.21 517.346 551.867 517.11C563.47 516.875 568.68 514.989 565.128 512.397C562.167 510.393 544.406 510.276 541.683 512.279ZM419.015 514.4C414.397 516.286 418.068 518.76 426.475 519.703C435.118 520.646 439.263 519.703 438.789 516.993C438.078 513.693 425.172 512.043 419.015 514.4ZM488.282 571.203C487.099 579.689 488.875 584.52 492.901 584.52C498.11 584.52 499.176 581.692 497.044 573.679C494.558 564.251 489.348 562.836 488.282 571.203Z" fill="#ADC4CE"/>
<path d="M417.88 271.043C407.347 261.041 406.7 244.731 406.376 233.017C405.242 188.324 408.968 144.891 408.968 127.23C409.049 106.325 412.938 97.2239 418.852 90.4657C422.498 86.2306 420.797 83.4373 415.936 85.5098C410.346 87.9427 406.942 91.8173 404.512 102.811C398.354 131.015 396.815 222.655 398.84 248.066C399.975 262.213 406.375 272.755 415.206 274.828C421.202 276.45 422.093 275.098 417.88 271.043Z" fill="#BFCCB5"/>
<path d="M429.547 222.563C425.334 218.598 425.253 218.869 437.243 205.623C459.767 180.843 480.508 164.804 502.869 190.124C511.862 200.306 513.888 203.37 521.828 218.058C523.772 221.662 523.61 223.194 521.26 222.383C519.154 221.662 458.552 221.212 441.214 221.662C433.517 221.842 435.947 225.987 441.294 226.348C454.663 227.249 490.392 227.699 515.184 229.141C536.897 230.493 551.724 232.565 562.58 230.042C583.078 225.267 576.353 223.645 580.404 165.164C581.539 148.404 580.809 118.308 579.27 114.793C571.573 98.2135 536.978 91.5455 476.781 94.9696C455.716 96.141 442.753 98.2135 442.753 100.376C442.753 103.53 452.799 103.98 480.751 102.178C500.358 100.917 509.674 101.097 533.089 103.44C555.774 105.693 568.657 108.486 571.249 111.73C575.624 117.226 576.272 119.479 575.462 126.417C574.409 135.158 573.761 161.019 573.599 165.525L571.249 161.47C553.02 129.661 520.288 133.356 494.524 170.21L492.499 173.094L488.043 171.201C470.218 163.452 446.885 175.707 429.061 202.379L423.632 210.399L422.984 205.082C422.336 199.676 422.741 162.461 423.875 128.039C424.523 107.405 425.172 106.053 430.276 103.53C433.841 101.818 433.678 99.2047 429.627 99.2047C423.875 99.2047 421.525 102.178 419.095 109.838C415.044 122.723 410.75 199.586 416.989 216.075C419.419 222.563 421.85 225.807 426.954 226.618C432.22 227.699 433.193 226.077 429.547 222.563ZM499.223 177.509C499.709 176.608 522.881 155.883 525.797 153.81C533.737 148.044 544.594 146.602 552.534 150.206C558.043 152.729 561.851 156.334 566.307 162.911C573.355 173.544 573.194 173.004 571.897 185.439C571.249 191.386 570.358 200.487 569.872 205.623C568.09 225.447 565.578 224.365 528.633 221.662L524.744 214.003C520.693 205.983 512.997 194.99 504.004 184.537C501.168 181.113 498.899 177.96 499.223 177.509Z" fill="#BFCCB5"/>
<path d="M596.284 120.111C599.444 108.577 590.775 90.4651 571.655 85.9596C559.259 82.9861 533.495 82.5355 464.142 81.0938C453.853 80.9135 441.943 81.0037 437.649 81.274C429.79 81.9047 427.036 82.986 429.061 84.6981C431.816 87.0409 440.728 87.6717 479.941 88.1222C575.625 89.2936 583.402 90.8255 589.56 108.667C590.694 112.001 590.208 173.275 588.912 189.044C588.264 197.514 587.291 214.905 586.886 227.79C585.671 265.095 582.187 271.763 565.092 270.322C556.828 269.601 501.249 271.223 457.661 271.944C412.695 272.664 428.98 278.972 436.109 279.873C463.008 283.207 575.382 278.612 585.266 273.025C604.792 262.122 595.96 121.282 596.284 120.111Z" fill="#BFCCB5"/>
<path d="M458.876 111.911C438.459 120.832 445.994 153.541 468.436 153.451C484.802 153.361 495.091 129.663 484.883 120.471C480.346 116.326 479.86 119.12 481.562 124.166C486.261 137.862 472.973 152.82 460.334 146.873C446.966 140.656 457.499 116.597 473.622 116.597L476.619 116.687C478.725 116.777 479.374 113.443 477.429 112.542C472.892 110.289 464.223 109.568 458.876 111.911Z" fill="#BFCCB5"/>
<path fill-rule="evenodd" clip-rule="evenodd" d="M698.507 615.53C698.552 616.115 698.597 616.876 698.642 617.519C698.642 617.929 698.552 618.338 698.326 618.631C698.101 618.924 697.831 619.099 697.515 619.099L683.143 619.626C682.557 619.626 682.017 619.099 681.927 618.28L681.791 617.285C681.251 612.605 677.061 609.153 673.096 608.685C668.05 608.1 665.527 612.137 665.752 616.993C665.842 618.748 665.797 625.769 668.05 625.71C668.23 625.71 668.591 625.652 668.906 625.652C669.311 625.593 669.672 625.944 669.762 626.471C670.032 627.933 669.942 630.507 669.807 632.906C669.447 638.815 672.555 640.512 677.601 637.118C678.953 636.182 679.719 634.369 679.629 632.438L679.404 627.816C679.404 627.407 679.494 626.997 679.719 626.705C679.944 626.412 680.26 626.237 680.575 626.237C684.45 626.295 696.434 626.471 700.985 626.705C701.66 626.763 702.201 627.465 702.201 628.284C702.201 630.332 702.336 632.555 702.336 633.667C700.759 636.826 705.175 638.464 708.734 637.411C710.807 636.826 712.203 635.948 713.059 634.837C713.735 633.959 713.915 632.614 713.51 631.502C713.104 630.449 713.33 629.045 713.33 628.226C713.33 627.056 713.735 626.412 714.546 626.471C715.447 626.529 716.889 626.588 719.322 626.88L722.971 627.29C723.827 627.407 724.593 627.933 725.179 628.752L727.567 632.204C728.107 632.965 728.423 633.959 728.423 635.012C728.468 637.528 728.558 642.15 728.513 642.969C728.198 643.027 701.796 642.267 654.218 643.905V637.879C654.218 630.215 654.714 628.986 658.498 627.173C662.553 625.183 661.922 623.194 657.282 623.311C651.38 623.487 647.955 625.301 648 635.129C648 646.245 648.676 671.577 648.451 687.549C648.316 696.208 648.947 699.074 651.695 702.877C653.272 705.042 655.57 706.621 657.417 707.265C660.751 708.318 662.328 705.276 659.174 702.702C657.237 701.122 655.57 697.67 654.624 695.74C654.218 694.921 653.993 693.985 653.993 692.99C653.813 671.109 654.263 652.388 654.308 648.293C662.868 648.293 728.378 648.117 728.873 648.761C729.099 649.053 729.234 658.648 729.234 670.115V685.267C728.378 698.782 726.395 700.303 717.88 701.239C688.099 704.457 697.606 702.526 667.87 703.989C659.444 704.398 662.328 707.089 668.816 707.558C695.037 709.313 723.016 705.276 725.855 705.334C734.37 705.393 735.677 698.138 735.722 698.08L841.825 699.659C842.681 699.659 843.537 699.191 844.123 698.372L847.097 694.336C847.637 693.575 847.953 692.639 847.953 691.586V674.854C847.998 654.026 848.088 643.378 847.772 637.411C847.277 628.284 843.627 623.604 839.122 622.96C834.076 622.258 735.947 623.194 731.622 622.843C729.459 622.668 728.062 621.907 727.702 621.498C726.936 620.62 725.81 620.386 721.484 620.152C717.97 619.977 715.447 619.801 715.447 619.801C715.447 619.801 715.492 617.695 715.492 616.349C715.492 612.898 711.167 609.212 707.337 608.217C702.246 606.872 698.101 612.079 698.507 615.53ZM708.509 617.929C708.509 619.158 708.869 621.147 709.365 622.375C710.897 627.348 710.446 634.603 706.887 633.433C704.634 632.497 704.454 618.28 705.76 615.647C706.752 613.717 708.509 614.887 708.509 617.929ZM674.943 617.051C675.934 621.615 676.205 623.662 676.43 628.226L676.61 631.268C676.655 632.438 676.16 633.55 675.304 634.018C672.645 635.422 672.42 634.661 672.42 625.476C672.42 615.764 673.727 611.435 674.943 617.051ZM839.663 629.454C840.654 658.238 840.789 687.959 840.789 687.9C840.834 691.176 838.266 692.756 835.743 693.107C827.408 694.394 748.112 692.405 739.822 692.99C736.488 693.224 736.488 693.224 736.803 691.878C738.11 686.32 737.254 635.714 735.767 631.736C735.226 630.332 734.821 629.103 734.821 629.103C734.821 629.045 798.618 628.109 839.663 629.454ZM678.097 659.174C674.853 660.111 674.853 663.153 678.097 666.312C679.359 667.541 683.053 667.892 684.044 666.897C684.36 666.605 686.612 666.195 689.09 666.019C691.568 665.844 694.992 665.259 696.659 664.674C700.94 663.27 701.48 664.206 698.011 666.956C693.055 670.875 689.541 676.726 688.505 682.869C687.018 691.82 687.378 693.692 690.532 693.692C693.1 693.692 693.911 692.58 694.767 688.017C696.524 678.656 699.813 672.689 702.787 669.647C706.932 665.376 708.329 664.44 705.896 661.515C703.102 658.121 700.129 658.063 690.983 661.164C688.55 661.983 688.324 661.983 686.072 660.696C683.278 659.116 680.26 658.589 678.097 659.174Z" fill="#ECE5C7"/>
<path d="M120.36 601.133C119.99 602.498 122.704 609.869 127.391 620.243C143.467 655.677 141.329 656.004 144.248 656.004C147.373 656.004 146.921 654.475 137.382 630.998C127.144 605.829 121.758 596.329 120.36 601.133Z" fill="#FED766"/>
<path d="M117.605 661.791C117.071 662.501 117.359 663.102 119.25 665.832C122.087 669.872 126.815 671.565 126.815 668.562C126.774 666.105 118.798 660.208 117.605 661.791Z" fill="#FED766"/>
<path d="M110.903 679.317C91.0856 670.581 84.2192 668.397 81.8756 670.254C79.9432 671.728 81.0944 672.82 86.4806 674.621C91.0856 676.096 99.4733 679.481 107.696 683.139C114.439 686.142 116.002 686.469 117.893 685.541C120.483 684.176 118.962 682.866 110.903 679.317Z" fill="#FED766"/>
<path d="M152.842 587.975C152.472 589.286 154.568 601.733 156.419 609.432C156.871 611.288 157.776 616.202 158.433 620.297C159.667 628.268 159.872 628.705 162.216 628.705C164.436 628.705 164.436 628.814 161.764 615.492C157.118 592.288 154.198 583.28 152.842 587.975Z" fill="#FED766"/>
<path d="M104.243 645.248C107.409 649.07 108.395 652.401 111.438 652.401C116.331 652.401 116.536 651.964 110.698 644.156C99.8844 629.688 89.5232 619.642 87.3029 621.498C85.206 623.355 93.1825 630.07 104.243 645.248Z" fill="#FED766"/>
<path d="M253.164 633.346C256.289 629.852 258.345 626.248 258.345 624.283C258.345 621.553 255.796 620.733 253.617 622.863C239.103 636.894 224.424 657.423 226.85 660.208C229.235 662.938 231.661 660.863 242.269 647.05C246.956 640.989 251.849 634.82 253.164 633.346Z" fill="#FED766"/>
<path d="M195.767 589.504C194.492 595.018 193.176 608.013 188.037 635.475C187.009 640.935 187.009 641.044 188.325 642.682C189.394 643.992 191.449 644.484 192.477 643.61C193.341 642.901 200.207 604.682 201.852 591.524C202.427 586.392 197.206 583.171 195.767 589.504Z" fill="#FED766"/>
<path d="M271.708 656.004C259.208 660.645 236.43 672.82 235.156 675.604C234.251 677.515 237.91 679.371 240.377 678.225L249.546 673.857C263.649 667.142 281 657.314 281 656.058C280.959 653.492 278.451 653.493 271.708 656.004Z" fill="#FED766"/>
<path d="M226.645 599.932C225.946 601.515 223.849 605.829 217.517 617.458C214.639 622.699 209.869 633.619 209.869 634.929C209.869 637.55 215.461 628.487 225 610.36C227.056 606.429 229.112 602.771 229.605 602.225C231.825 599.55 227.96 596.984 226.645 599.932Z" fill="#FED766"/>
<path fill-rule="evenodd" clip-rule="evenodd" d="M270.01 757.283C177.804 766.542 50.8228 899.647 87.4662 948.032C107.059 973.917 160.529 940.167 175.186 892.778C187.002 854.548 141.833 856.64 121.193 895.168C110.499 915.179 119.922 934.891 136.225 926.529C139.814 924.637 138.917 926.13 133.233 931.407C116.781 946.639 98.9827 952.712 94.9444 944.648C80.0627 915.179 127.924 844.494 191.713 801.287C219.383 782.57 260.663 762.36 274.722 760.469C285.565 758.975 281.303 756.088 270.01 757.283ZM165.24 885.014C163.969 889.494 160.454 896.662 160.454 894.969C160.454 888.299 150.209 882.823 143.628 886.109C141.011 887.403 146.245 881.927 151.106 878.244C166.885 866.297 168.979 871.972 165.24 885.014ZM148.938 900.445C145.273 907.513 135.327 917.768 128.896 917.469C125.082 917.27 125.531 908.31 130.018 900.047C131.513 897.259 133.906 893.576 134.878 894.472C135.925 895.567 134.056 899.35 134.056 899.35C132.859 903.929 135.477 910.799 144.152 900.047C150.134 892.779 152.303 893.974 148.938 900.445Z" fill="#DEB6AB"/>
<path fill-rule="evenodd" clip-rule="evenodd" d="M201.228 34.4242C200.19 34.7997 196.407 38.1795 192.846 41.8598C182.46 52.525 172.446 56.3555 165.844 52.2997C161.022 49.3705 155.162 43.9628 153.901 41.3341C150.859 34.7997 148.114 37.053 146.037 48.0186C141.957 69.3491 129.495 79.4887 110.875 76.8599C100.268 75.3578 99.4514 75.8835 104.422 81.7419C119.851 99.993 111.988 130.411 89.3629 140.025C85.3571 141.753 85.9503 142.504 95.0004 147.085C109.466 154.371 117.7 174.424 113.175 191.023C111.691 196.356 111.691 198.834 113.026 199.736C114.51 200.712 117.477 200.562 118.812 199.36C122.15 196.431 136.097 195.755 140.548 198.309C145.963 201.388 156.719 218.663 156.719 224.296C156.719 227.075 159.909 232.032 162.283 233.083C166.437 234.886 166.511 234.811 173.41 225.497C189.656 203.641 202.192 201.613 216.658 218.362C224.743 227.676 228.527 227.676 229.862 218.287C233.423 193.201 248.927 177.654 265.395 182.686C275.187 185.691 275.409 184.639 269.846 165.787C267.546 158.201 268.14 150.165 271.329 144.231C275.335 136.796 281.641 127.482 284.682 124.553C288.762 120.572 287.352 117.793 281.269 117.793C275.038 117.793 265.617 108.029 262.502 98.3406C260.276 91.6561 262.65 76.3341 267.323 66.495C269.03 62.8899 268.139 60.4865 264.727 59.6603C262.798 59.1345 259.905 60.2611 259.905 61.3877C259.905 63.716 236.983 65.4436 229.491 63.7161C217.622 60.9371 205.234 47.1173 206.866 38.4048C207.311 35.1001 204.715 33.0723 201.228 34.4242ZM205.011 52.1495C211.02 65.1431 229.565 71.4521 252.784 68.5229L256.864 67.9972L255.381 71.4521C246.924 91.4307 254.935 113.212 273.48 120.347C277.634 121.924 277.783 121.173 272.145 128.083C256.715 147.16 254.935 155.648 263.17 172.021C265.024 175.626 266.211 178.555 265.914 178.555C265.618 178.555 262.799 178.105 259.609 177.504C250.93 175.927 246.552 177.128 238.615 183.062C227.414 191.474 222.666 200.186 222.666 212.579V215.433L217.993 211.603C200.857 197.482 181.644 200.712 167.401 220.09L165.25 222.944L162.134 216.334C153.975 198.759 141.957 190.723 126.676 192.6L120.89 193.276L121.335 190.948C124.673 172.246 116.29 152.869 101.38 144.907L96.9288 142.504L103.234 135.894C120.073 118.244 123.56 101.195 113.546 84.8964L112.062 82.493L116.068 82.9436C132.611 84.6711 150.859 70.626 152.639 54.7032L153.159 50.2719L156.571 52.7504C170.22 62.5894 183.499 61.3878 196.48 49.0702C201.302 44.5637 201.599 44.3384 202.266 45.8405C202.563 46.8169 203.824 49.5959 205.011 52.1495ZM174.003 74.156C108.576 92.0315 121.483 197.558 188.543 192.751C247.517 188.545 270.291 103.298 218.29 80.0144C209.907 76.259 208.127 80.5401 216.435 86.1732C269.327 121.999 217.177 213.856 162.728 180.733C122.151 156.098 135.281 97.1389 176.971 80.7655C182.386 78.6625 190.917 77.0101 197.222 77.3856C203.824 77.7612 205.976 73.7054 197.668 72.4286C191.214 71.3771 180.161 72.4285 174.003 74.156Z" fill="#F2D388"/>
<path d="M909.998 473.933C891.34 491.007 861.756 491.262 842.341 478.095C828.725 468.836 820.069 456.434 832.928 446.07C837.13 442.673 841.922 438.425 843.518 436.726C844.359 435.877 854.023 430.1 842.341 427.212C813.849 420.332 814.943 386.523 844.359 366.561C852.848 360.784 873.691 352.12 878.986 352.12C887.895 352.12 894.366 347.958 890.752 344.56C877.641 332.158 842.509 322.814 818.808 325.447C728.375 335.301 687.192 430.695 747.286 491.007C785.274 529.148 843.434 536.028 885.625 507.402C893.861 501.795 913.864 488.628 918.655 478.18C920.588 473.678 913.948 470.365 909.998 473.933ZM892.685 497.038C876.044 509.95 841.416 518.02 814.438 515.386C702.488 504.428 704.758 363.248 805.866 337.764C830.575 331.563 854.023 333.347 875.119 341.417C883.524 344.645 884.449 345.409 879.658 345.409C871.674 345.409 855.368 350.081 844.862 355.348C805.193 375.395 798.974 411.242 832.34 427.892C837.971 430.695 837.971 430.695 836.038 431.969C816.791 444.796 815.194 456.009 829.902 473.933C844.946 492.281 867.555 497.803 894.45 489.733C900.249 487.949 904.032 488.289 892.685 497.038Z" fill="#537188"/>
<path d="M748.48 834.037C751.175 834.096 751.284 832.961 749.173 827.825C746.769 821.972 744.512 820.06 743.165 822.688C741.818 825.376 745.822 833.977 748.48 834.037Z" fill="#DEB6AB"/>
<path d="M735.7 804.651C739.232 814.447 745.131 814.566 741.635 804.711C736.356 789.958 729.584 774.967 727.435 773.115C726.052 771.98 723.503 771.98 723.212 773.115C722.848 774.847 727.217 780.999 735.7 804.651Z" fill="#DEB6AB"/>
<path d="M702.494 827.766C722.229 838.338 739.305 849.029 741.599 850.223C742.91 850.88 742.509 846.58 741.016 843.952C738.577 839.652 697.251 819.523 697.251 822.689C697.251 824.182 699.071 825.974 702.494 827.766Z" fill="#DEB6AB"/>
<path d="M804.735 809.788C806.373 810.027 809.541 803.576 808.667 801.784C808.121 800.709 805.754 800.649 804.989 801.665C802.987 804.412 802.841 809.489 804.735 809.788Z" fill="#DEB6AB"/>
<path d="M740.033 871.785C737.812 872.621 729.584 878.355 710.541 892.271C698.744 900.872 698.489 901.231 700.783 904.217C703.441 907.621 702.713 906.307 731.295 883.611C741.635 875.428 745.932 869.575 740.033 871.785Z" fill="#DEB6AB"/>
<path d="M718.733 865.036C721.246 865.155 721.464 865.036 721.573 863.901C721.755 861.751 720.809 861.213 715.566 860.676C715.529 860.676 703.186 859.003 697.652 859.063C693.282 859.063 695.176 862.766 697.215 863.662C700.455 864.976 707.883 864.558 718.733 865.036Z" fill="#DEB6AB"/>
<path d="M850.211 869.395C847.954 872.501 848.937 873.696 855.127 875.308C859.205 876.383 859.678 871.128 855.673 869.217C852.068 867.485 851.558 867.484 850.211 869.395Z" fill="#DEB6AB"/>
<path d="M814.638 786.314C821.192 769.292 821.738 767.44 820.5 766.664C819.663 766.126 817.733 766.306 816.859 766.963C815.366 768.157 808.412 789.301 808.23 793.303C807.975 798.38 811.434 794.616 814.638 786.314Z" fill="#DEB6AB"/>
<path d="M847.99 852.253C848.864 852.851 850.685 852.492 859.532 849.924C885.093 842.518 889.644 843.653 885.165 838.696C883.527 836.904 881.488 836.963 872.749 839.173C848.027 845.325 842.237 848.371 847.99 852.253Z" fill="#DEB6AB"/>
<path d="M847.117 827.587C845.697 826.034 844.604 825.914 843.257 827.049C841.546 828.482 841.364 830.394 842.856 831.648C845.842 834.157 849.775 830.453 847.117 827.587Z" fill="#DEB6AB"/>
<path d="M825.853 820.299C826.69 820.598 827.564 820.239 828.219 819.403C834.081 811.818 841.109 802.68 845.915 798.38C854.617 790.556 864.412 779.565 864.412 777.594C864.412 772.756 860.698 772.816 855.964 777.834C835.392 799.455 822.54 816.238 821.994 817.671C821.557 818.746 824.105 819.702 825.853 820.299Z" fill="#DEB6AB"/>
<path d="M855.855 818.747C862.446 817.672 877.446 808.534 876.208 805.248C875.189 802.561 872.495 802.083 869.145 803.875C863.101 807.16 854.071 813.849 852.943 815.88C852.943 815.88 850.94 819.583 855.855 818.747Z" fill="#DEB6AB"/>
<path d="M758.603 891.196C756.746 889.823 755.508 890.3 753.978 893.048C751.976 896.632 752.085 896.989 735.409 934.08C731.404 942.979 731.331 943.816 734.499 944.712C736.501 945.25 736.938 944.533 743.529 930.258C759.039 896.572 760.569 892.69 758.603 891.196Z" fill="#DEB6AB"/>
<path d="M785.037 800.172C784.454 795.991 782.706 793.542 781.614 795.334C781.177 796.05 781.359 801.366 781.869 802.023C783.325 804.054 785.401 802.859 785.037 800.172Z" fill="#DEB6AB"/>
<path d="M802.55 917.536C802.259 918.073 802.295 918.79 802.659 920.044C803.934 924.643 807.174 936.947 807.975 940.351C809.614 947.16 811.362 951.7 812.418 951.879C813.838 952.118 813.764 951.58 810.997 940.471C805.936 920.104 803.97 914.788 802.55 917.536Z" fill="#DEB6AB"/>
<path d="M788.386 900.096C786.711 898.841 785.037 899.26 784.6 901.051C783.981 903.679 784.199 960.898 784.818 962.869C785.583 965.318 787.44 965.736 788.496 963.705C789.333 962.153 789.333 961.794 789.369 947.937C789.406 940.173 789.442 931.094 789.515 927.809C789.843 912.399 789.333 900.812 788.386 900.096Z" fill="#DEB6AB"/>
<path d="M810.524 902.963C815.112 913.833 831.132 949.192 831.169 949.192C833.171 953.612 843.476 965.198 829.276 933.781C822.176 918.073 817.114 905.829 813.582 900.991C811.361 898.064 808.085 897.229 810.524 902.963Z" fill="#DEB6AB"/>
<path d="M872.458 924.763C867.251 919.209 842.274 888.329 837.941 885.343C836.485 884.328 836.12 884.328 834.664 885.343C831.897 887.314 833.098 889.225 848.864 907.741C862.955 924.285 870.237 931.871 873.66 933.304C875.48 934.081 879.922 932.707 872.458 924.763Z" fill="#DEB6AB"/>
<path d="M721.792 912.459C715.129 919.806 711.524 925.898 713.454 926.495C715.092 927.033 726.416 915.446 726.707 912.997C726.998 910.309 723.976 910.01 721.792 912.459Z" fill="#DEB6AB"/>
<path d="M894.304 882.297C894.086 881.759 867.688 869.396 864.521 874.592C862.445 877.997 863.101 879.609 867.325 881.221C890.263 890.121 897.436 890.42 894.304 882.297Z" fill="#DEB6AB"/>
<path d="M782.816 774.668C781.505 765.888 780.631 763.798 778.883 765.589C778.41 766.067 778.446 767.859 779.029 777.834C779.284 781.955 780.303 784.165 782.015 784.165C784.017 784.224 784.09 783.269 782.816 774.668Z" fill="#DEB6AB"/>
<path d="M734.79 901.29C733.298 899.976 731.914 900.574 730.166 903.202C727.399 907.382 730.093 908.815 733.88 905.172C735.628 903.5 735.919 902.245 734.79 901.29Z" fill="#DEB6AB"/>
<path d="M764.355 802.74C763.081 797.126 758.056 771.264 755.253 767.62C754.27 766.366 753.359 766.724 753.359 768.337C753.359 769.95 760.35 806.443 761.188 812.117C762.098 818.508 770.181 828.363 764.355 802.74Z" fill="#DEB6AB"/>
<path d="M762.426 943.995C760.46 947.878 762.863 953.492 765.557 951.402C767.123 950.147 767.56 946.623 766.431 944.593C765.448 942.801 763.19 942.502 762.426 943.995Z" fill="#DEB6AB"/>
<path d="M769.052 907.084C768.433 910.309 765.12 929.302 764.901 930.378C764.246 933.364 766.686 935.514 768.324 933.364C769.344 932.05 772.256 910.01 772.256 903.679C772.256 898.244 770.363 900.275 769.052 907.084Z" fill="#DEB6AB"/>
</svg>
