<svg xmlns="http://www.w3.org/2000/svg" version="1.1" xmlns:xlink="http://www.w3.org/1999/xlink" xmlns:svgjs="http://svgjs.dev/svgjs" viewBox="0 0 800 800" opacity="1"><g stroke-width="2.5" stroke="#a6c6e6" fill="none"><path d="M381.47699462696835 85.39491284962949C389.0644391388885 70.05985305298066 410.9354998259553 70.05985305298066 418.5229443378754 85.39491284962949L720.8297776168594 696.2733233440654C727.626701862982 710.0092588121889 717.6341123593704 726.1064214794596 702.3068027614058 726.1064214794596H97.69313620343786C82.36582660547333 726.1064214794596 72.37323710186189 710.0092588121889 79.17016134798433 696.2733233440654L381.47699462696835 85.39491284962949Z " transform="rotate(136, 400, 400)" opacity="1.00"></path><path d="M382.5666424183278 103.9011034224684C389.70776666484073 89.4681059667989 410.2922943703155 89.4681059667989 417.4334186168285 103.9011034224684L701.9574969970487 678.8454897701727C708.35460216987 691.7734290342889 698.9498120488238 706.9236997799555 684.5241088977983 706.9236997799555H115.47595213735787C101.05024898633246 706.9236997799555 91.6454588652864 691.7734290342889 98.04256403810746 678.8454897701727L382.5666424183278 103.9011034224684Z " transform="rotate(128, 400, 400)" opacity="0.94"></path><path d="M383.6561681393746 122.40723296015102C390.3509721204806 108.87629784546087 409.64896684436314 108.87629784546087 416.34377082546916 122.40723296015102L683.0850943069255 661.4175951611238C689.0823804064455 673.5375382212329 680.2653896679647 687.7409170452953 666.7412929638784 687.7409170452953H133.25864600096543C119.73454929687904 687.7409170452953 110.91755855839835 673.5375382212329 116.91484465791814 661.4175951611238L383.6561681393746 122.40723296015102Z " transform="rotate(120, 400, 400)" opacity="0.88"></path><path d="M384.74575489557776 140.91342353298992C390.9942386112766 128.2845507592791 409.00570035356714 128.2845507592791 415.2541840692659 140.91342353298992L664.2127526519586 643.9897615872312C669.8102196781772 655.3017084433329 661.5810283222619 668.5581953457912 648.9585380651146 668.5581953457912H151.04140089972918C138.41891064258192 668.5581953457912 130.18971928666662 655.3017084433329 135.78718631288507 643.9897615872312L384.74575489557776 140.91342353298992Z " transform="rotate(112, 400, 400)" opacity="0.82"></path><path d="M385.83537216935906 159.41962936461786C391.63753561965086 147.6928189318864 408.36246438034914 147.6928189318864 414.16462783064094 159.41962936461786L645.3404415145698 626.5619432721276C650.5380894674872 637.0658939242221 642.8966974941371 649.3754889050763 631.1758136839289 649.3754889050763H168.82418631607106C157.10330250586287 649.3754889050763 149.46191053251295 637.0658939242221 154.65955848543013 626.5619432721276L385.83537216935906 159.41962936461786Z " transform="rotate(104, 400, 400)" opacity="0.76"></path><path d="M386.92495892556224 177.92578941987864C392.280802110447 167.1010413281265 407.719197889553 167.1010413281265 413.07504107443776 177.92578941987864L626.468099859603 609.134079180657C631.2659287392189 618.8300336287441 624.2123361484342 630.192736687994 613.3930587851652 630.192736687994H186.60694121483482C175.78766385156575 630.192736687994 168.7340712607812 618.8300336287441 173.531900140397 609.134079180657L386.92495892556224 177.92578941987864Z " transform="rotate(96, 400, 400)" opacity="0.70"></path><path d="M388.01454568176536 196.43197999271752C392.9240686012431 186.50929424194476 407.0759313987569 186.50929424194476 411.98545431823464 196.43197999271752L607.595758204636 591.7062456067642C611.9937680109507 600.5942038508442 605.5279748027315 611.01001498849 595.6103038864014 611.01001498849H204.38969611359857C194.47202519726858 611.01001498849 188.0062319890494 600.5942038508442 192.40424179536393 591.7062456067642L388.01454568176536 196.43197999271752Z " transform="rotate(88, 400, 400)" opacity="0.64"></path><path d="M389.1041324379685 214.93817056555642C393.5673350920391 205.91754715576297 406.4326649079609 205.91754715576297 410.8958675620315 214.93817056555642L588.7234165496691 574.2784120328716C592.7216072826825 582.3583740729443 586.8436134570286 591.8272932889859 577.8275489876377 591.8272932889859H222.17245101236233C213.15638654297146 591.8272932889859 207.27839271731767 582.3583740729443 211.27658345033086 574.2784120328716L389.1041324379685 214.93817056555642Z " transform="rotate(80, 400, 400)" opacity="0.58"></path><path d="M390.1937039353826 233.4443611383953C394.2105863240462 225.32580006958122 405.7893831583757 225.32580006958122 409.8062655470393 233.4443611383953L569.8510596359131 556.850578458979C573.4494312956251 564.1225442950445 568.1592368525367 572.6445715894819 560.0447788300849 572.6445715894819H239.95519065233708C231.84073262988522 572.6445715894819 226.5505381867968 564.1225442950445 230.14890984650867 556.850578458979L390.1937039353826 233.4443611383953Z " transform="rotate(72, 400, 400)" opacity="0.53"></path><path d="M391.2833059503748 251.95052119365607C394.8538680736313 244.7340224658213 405.1461319263687 244.7340224658213 408.7166940496252 251.95052119365607L550.9787332397352 539.4227143675082C554.1772858261459 545.8866839995663 549.4748907656228 553.4618193723996 542.26203919011 553.4618193723996H257.7379608098899C250.52510923437717 553.4618193723996 245.82271417385414 545.8866839995663 249.02126676026467 539.4227143675082L391.2833059503748 251.95052119365607Z " transform="rotate(64, 400, 400)" opacity="0.47"></path><path d="M392.37289270657794 270.45671176649495C395.49713456442737 264.14227537963956 404.50286543557263 264.14227537963956 407.627107293422 270.45671176649495L532.1063915847683 521.9948807936156C534.9051250978777 527.6508542216665 530.79052941992 534.2790976728957 524.4792842913464 534.2790976728957H275.52071570865365C269.20947058008 534.2790976728957 265.09487490212234 527.6508542216665 267.8936084152316 521.9948807936156L392.37289270657794 270.45671176649495Z " transform="rotate(56, 400, 400)" opacity="0.41"></path><path d="M393.4624794627811 288.9629023393338C396.1404010552235 283.5505282934578 403.8595989447765 283.5505282934578 406.5375205372189 288.9629023393338L513.2340499298015 504.567047219723C515.6329643696095 509.4150244437666 512.1061680742171 515.0963759733916 506.6965293925826 515.0963759733916H293.3034706074174C287.8938319257829 515.0963759733916 284.3670356303906 509.4150244437666 286.7659500701985 504.567047219723L393.4624794627811 288.9629023393338Z " transform="rotate(48, 400, 400)" opacity="0.35"></path><path d="M394.55206621898424 307.4690852827782C396.78366754601956 302.9587735778815 403.21633245398044 302.9587735778815 405.44793378101576 307.4690852827782L494.36170827483454 487.1392060164358C496.36080364134125 491.1791870364722 493.4218067285143 495.9136466444929 488.91377449381883 495.9136466444929H311.08622550618117C306.5781932714857 495.9136466444929 303.6391963586588 491.1791870364722 305.6382917251654 487.1392060164358L394.55206621898424 307.4690852827782Z " transform="rotate(40, 400, 400)" opacity="0.29"></path><path d="M395.6416529751874 325.97526822622257C397.4269340368156 322.3670188623052 402.5730659631844 322.3670188623052 404.3583470248126 325.97526822622257L475.4893666198676 469.71136481314863C477.08864291307293 472.9433496291777 474.7374453828114 476.73091731559435 471.131019595055 476.73091731559435H328.8689804049449C325.2625546171886 476.73091731559435 322.91135708692707 472.9433496291777 324.51063338013233 469.71136481314863L395.6416529751874 325.97526822622257Z " transform="rotate(32, 400, 400)" opacity="0.23"></path><path d="M396.73123973139053 344.48145879906144C398.07020052761175 341.7752717761234 401.92979947238825 341.7752717761234 403.26876026860947 344.48145879906144L456.61702496490074 452.28353123925604C457.8164821848047 454.7075198512778 456.05308403710853 457.5481956160903 453.34826469629127 457.5481956160903H346.65173530370873C343.9469159628914 457.5481956160903 342.1835178151953 454.7075198512778 343.38297503509926 452.28353123925604L396.73123973139053 344.48145879906144Z " transform="rotate(24, 400, 400)" opacity="0.17"></path><path d="M397.8208264875937 362.9876341131113C398.7134670184078 361.18350943115263 401.2865329815922 361.18350943115263 402.1791735124063 362.9876341131113L437.7446833099338 434.8556824065743C438.54432145653647 436.4716748145888 437.3687226914057 438.36545865779715 435.5655097975275 438.36545865779715H364.4344902024725C362.6312773085943 438.36545865779715 361.45567854346353 436.4716748145888 362.2553166900662 434.8556824065743L397.8208264875937 362.9876341131113Z " transform="rotate(16, 400, 400)" opacity="0.11"></path><path d="M398.9104132437968 381.49382468595013C399.35673350920393 380.5917623449708 400.64326649079607 380.5917623449708 401.0895867562032 381.49382468595013L418.87234165496693 417.42784883268166C419.27216072826826 418.23584503668894 418.6843613457029 419.1827369582931 417.78275489876376 419.1827369582931H382.21724510123624C381.3156386542971 419.1827369582931 380.72783927173174 418.23584503668894 381.12765834503307 417.42784883268166L398.9104132437968 381.49382468595013Z " transform="rotate(8, 400, 400)" opacity="0.05"></path></g></svg>