<svg width="200" height="200" viewBox="0 0 200 200" fill="none" xmlns="http://www.w3.org/2000/svg">
<g clip-path="url(#clip0_1_14)">
<g clip-path="url(#clip1_1_14)">
<path d="M156.25 25C147.962 25 140.013 28.2924 134.153 34.1529C128.292 40.0134 125 47.962 125 56.25C125 57.9076 124.342 59.4973 123.169 60.6694C121.997 61.8415 120.408 62.5 118.75 62.5C117.092 62.5 115.503 61.8415 114.331 60.6694C113.158 59.4973 112.5 57.9076 112.5 56.25C112.5 47.5971 115.066 39.1384 119.873 31.9438C124.681 24.7491 131.513 19.1416 139.508 15.8303C147.502 12.5189 156.299 11.6525 164.785 13.3406C173.272 15.0287 181.067 19.1955 187.186 25.3141C193.304 31.4326 197.471 39.2281 199.159 47.7148C200.847 56.2015 199.981 64.9981 196.67 72.9924C193.358 80.9867 187.751 87.8195 180.556 92.6268C173.362 97.4341 164.903 100 156.25 100H6.25C4.5924 100 3.00269 99.3415 1.83058 98.1694C0.65848 96.9973 0 95.4076 0 93.75C0 92.0924 0.65848 90.5027 1.83058 89.3306C3.00269 88.1585 4.5924 87.5 6.25 87.5H156.25C164.538 87.5 172.487 84.2076 178.347 78.3471C184.208 72.4866 187.5 64.538 187.5 56.25C187.5 47.962 184.208 40.0134 178.347 34.1529C172.487 28.2924 164.538 25 156.25 25ZM68.75 37.5C65.4348 37.5 62.2554 38.8169 59.9112 41.1612C57.567 43.5054 56.25 46.6848 56.25 50C56.25 51.6576 55.5915 53.2473 54.4194 54.4194C53.2473 55.5915 51.6576 56.25 50 56.25C48.3424 56.25 46.7527 55.5915 45.5806 54.4194C44.4085 53.2473 43.75 51.6576 43.75 50C43.75 45.0555 45.2162 40.222 47.9633 36.1107C50.7103 31.9995 54.6148 28.7952 59.1829 26.903C63.7511 25.0108 68.7777 24.5157 73.6273 25.4804C78.4768 26.445 82.9314 28.826 86.4277 32.3223C89.924 35.8186 92.305 40.2732 93.2696 45.1227C94.2343 49.9723 93.7392 54.9989 91.847 59.5671C89.9548 64.1352 86.7505 68.0397 82.6393 70.7867C78.528 73.5338 73.6945 75 68.75 75H6.25C4.5924 75 3.00269 74.3415 1.83058 73.1694C0.65848 71.9973 0 70.4076 0 68.75C0 67.0924 0.65848 65.5027 1.83058 64.3306C3.00269 63.1585 4.5924 62.5 6.25 62.5H68.75C72.0652 62.5 75.2446 61.183 77.5888 58.8388C79.933 56.4946 81.25 53.3152 81.25 50C81.25 46.6848 79.933 43.5054 77.5888 41.1612C75.2446 38.8169 72.0652 37.5 68.75 37.5ZM0 118.75C0 117.092 0.65848 115.503 1.83058 114.331C3.00269 113.158 4.5924 112.5 6.25 112.5H131.775C139.192 112.5 146.442 114.699 152.609 118.82C158.776 122.94 163.582 128.797 166.42 135.649C169.259 142.502 170.001 150.042 168.554 157.316C167.108 164.59 163.536 171.272 158.292 176.517C153.047 181.761 146.365 185.332 139.091 186.779C131.817 188.226 124.277 187.484 117.424 184.645C110.572 181.807 104.715 177.001 100.595 170.834C96.4743 164.667 94.275 157.417 94.275 150C94.275 148.342 94.9335 146.753 96.1056 145.581C97.2777 144.408 98.8674 143.75 100.525 143.75C102.183 143.75 103.772 144.408 104.944 145.581C106.117 146.753 106.775 148.342 106.775 150C106.775 154.945 108.241 159.778 110.988 163.889C113.735 168 117.64 171.205 122.208 173.097C126.776 174.989 131.803 175.484 136.652 174.52C141.502 173.555 145.956 171.174 149.453 167.678C152.949 164.181 155.33 159.727 156.295 154.877C157.259 150.028 156.764 145.001 154.872 140.433C152.98 135.865 149.775 131.96 145.664 129.213C141.553 126.466 136.72 125 131.775 125H6.25C4.5924 125 3.00269 124.342 1.83058 123.169C0.65848 121.997 0 120.408 0 118.75Z" fill="#525252"/>
</g>
</g>
<defs>
<clipPath id="clip0_1_14">
<rect width="200" height="200" fill="white"/>
</clipPath>
<clipPath id="clip1_1_14">
<rect width="200" height="200" fill="white"/>
</clipPath>
</defs>
</svg>
