<svg width="200" height="200" viewBox="0 0 200 200" fill="none" xmlns="http://www.w3.org/2000/svg">
<g clip-path="url(#clip0_109_7)">
<g clip-path="url(#clip1_109_7)">
<path d="M146.781 129.29C158.884 112.772 164.305 92.2925 161.959 71.9486C159.613 51.6048 149.673 32.897 134.128 19.568C118.583 6.239 98.5794 -0.728188 78.1187 0.0603073C57.6581 0.848803 38.2496 9.33483 23.7762 23.8206C9.30277 38.3065 0.831823 57.7238 0.0580795 78.1878C-0.715664 98.6519 6.26485 118.654 19.6031 134.191C32.9413 149.729 51.6536 159.657 71.9963 161.988C92.3389 164.32 112.812 158.884 129.319 146.767H129.306C129.673 147.267 130.081 147.746 130.531 148.205L178.655 196.335C180.998 198.68 184.178 199.999 187.494 200C190.809 200.001 193.99 198.685 196.335 196.341C198.681 193.997 199.999 190.817 200 187.501C200.001 184.184 198.685 181.004 196.341 178.658L148.218 130.528C147.772 130.075 147.291 129.67 146.781 129.29ZM150.006 81.2352C150.006 90.2645 148.227 99.2054 144.773 107.547C141.318 115.889 136.254 123.469 129.87 129.854C123.486 136.239 115.907 141.303 107.567 144.758C99.2258 148.214 90.2862 149.992 81.2582 149.992C72.2301 149.992 63.2905 148.214 54.9497 144.758C46.6089 141.303 39.0302 136.239 32.6464 129.854C26.2626 123.469 21.1987 115.889 17.7438 107.547C14.289 99.2054 12.5108 90.2645 12.5108 81.2352C12.5108 62.9997 19.7538 45.5111 32.6464 32.6166C45.539 19.7222 63.0252 12.4781 81.2582 12.4781C99.4911 12.4781 116.977 19.7222 129.87 32.6166C142.763 45.5111 150.006 62.9997 150.006 81.2352Z" fill="#525252"/>
</g>
</g>
<defs>
<clipPath id="clip0_109_7">
<rect width="200" height="200" fill="white"/>
</clipPath>
<clipPath id="clip1_109_7">
<rect width="200" height="200" fill="white"/>
</clipPath>
</defs>
</svg>
