<svg width="200" height="200" viewBox="0 0 200 200" fill="none" xmlns="http://www.w3.org/2000/svg">
<g clip-path="url(#clip0_1_10)">
<g clip-path="url(#clip1_1_10)">
<path d="M200 93.75C200.001 99.7289 198.287 105.583 195.061 110.616C191.835 115.65 187.233 119.653 181.8 122.15C179.623 118.329 176.884 114.857 173.675 111.85C178.475 110.542 182.56 107.381 185.029 103.062C187.499 98.7425 188.152 93.6192 186.844 88.8187C185.536 84.0183 182.375 79.9341 178.055 77.4644C173.736 74.9948 168.613 74.3421 163.812 75.65C162.949 75.8842 162.044 75.93 161.161 75.7845C160.278 75.639 159.436 75.3055 158.693 74.8065C157.95 74.3075 157.323 73.6548 156.854 72.8924C156.385 72.13 156.085 71.2758 155.975 70.3875C155.091 63.2291 152.161 56.4774 147.537 50.9419C142.913 45.4064 136.791 41.3219 129.904 39.178C123.017 37.0341 115.658 36.9218 108.709 38.8546C101.76 40.7874 95.5159 44.6832 90.725 50.075C85.3838 49.8299 80.032 50.199 74.775 51.175C79.5686 42.3476 86.9086 35.1678 95.8396 30.5702C104.771 25.9726 114.879 24.1702 124.849 25.3975C134.818 26.6248 144.187 30.8251 151.737 37.4515C159.286 44.0779 164.665 52.8236 167.175 62.55C171.405 62.3365 175.635 62.9852 179.606 64.4567C183.578 65.9281 187.209 68.1916 190.279 71.1096C193.349 74.0277 195.794 77.5394 197.465 81.4314C199.136 85.3234 199.999 89.5144 200 93.75Z" fill="#525252"/>
<path d="M87.5 62.5C101.338 62.4973 114.692 67.5957 125.007 76.8201C135.322 86.0445 141.875 98.7476 143.412 112.5H143.75C152.038 112.5 159.987 115.792 165.847 121.653C171.708 127.513 175 135.462 175 143.75C175 152.038 171.708 159.987 165.847 165.847C159.987 171.708 152.038 175 143.75 175H37.5C27.817 175.007 18.5065 171.269 11.5174 164.567C4.5283 157.865 0.402464 148.72 0.00352001 139.045C-0.395424 129.37 2.96345 119.916 9.37705 112.662C15.7906 105.407 24.7618 100.915 34.4125 100.125C38.2753 89.128 45.4575 79.6017 54.967 72.8619C64.4766 66.1222 75.8443 62.5015 87.5 62.5ZM131.25 118.75C131.257 108.094 127.375 97.8016 120.333 89.8047C113.29 81.8078 103.571 76.6561 92.9994 75.3167C82.4279 73.9772 71.731 76.542 62.9164 82.5297C54.1018 88.5175 47.7755 97.5164 45.125 107.837C44.7664 109.234 43.9357 110.464 42.7738 111.319C41.6119 112.173 40.1903 112.599 38.75 112.525C35.4295 112.378 32.1129 112.894 28.9943 114.043C25.8757 115.193 23.0176 116.953 20.5872 119.22C18.1569 121.488 16.203 124.217 14.84 127.248C13.477 130.28 12.7321 133.553 12.649 136.875C12.5659 140.198 13.1462 143.504 14.356 146.6C15.5657 149.696 17.3807 152.519 19.6947 154.905C22.0086 157.291 24.7751 159.192 27.8324 160.496C30.8897 161.8 34.1763 162.481 37.5 162.5H143.75C146.409 162.494 149.035 161.922 151.456 160.824C153.877 159.725 156.037 158.124 157.792 156.126C159.547 154.129 160.857 151.782 161.635 149.24C162.413 146.698 162.642 144.019 162.306 141.382C161.971 138.744 161.078 136.209 159.687 133.943C158.297 131.677 156.44 129.733 154.241 128.239C152.041 126.745 149.55 125.736 146.931 125.279C144.312 124.822 141.625 124.927 139.05 125.587C138.119 125.826 137.146 125.846 136.206 125.648C135.266 125.449 134.384 125.036 133.63 124.441C132.875 123.846 132.268 123.085 131.855 122.217C131.442 121.35 131.235 120.398 131.25 119.438V118.75Z" fill="#525252"/>
</g>
</g>
<defs>
<clipPath id="clip0_1_10">
<rect width="200" height="200" fill="white"/>
</clipPath>
<clipPath id="clip1_1_10">
<rect width="200" height="200" fill="white"/>
</clipPath>
</defs>
</svg>
