<svg width="200" height="200" viewBox="0 0 200 200" fill="none" xmlns="http://www.w3.org/2000/svg">
<g clip-path="url(#clip0_1_20)">
<path fill-rule="evenodd" clip-rule="evenodd" d="M90.125 10C96.125 3.6875 100 0 100 0C101.363 4.5375 102.925 8.85 104.638 12.975C114.788 37.3 130.55 54.85 144.6 70.475C160.975 88.7 175 104.312 175 125C175 144.891 167.098 163.968 153.033 178.033C138.968 192.098 119.891 200 100 200C80.1088 200 61.0322 192.098 46.967 178.033C32.9018 163.968 25 144.891 25 125C25 83.35 69.75 31.4625 90.125 10ZM95.2875 22.7625C87.2601 31.4492 79.6314 40.496 72.425 49.875C63.35 61.75 54.475 74.975 47.925 88.25C41.3 101.662 37.5 114.225 37.5 125C37.5 141.576 44.0848 157.473 55.8058 169.194C67.5269 180.915 83.424 187.5 100 187.5C116.576 187.5 132.473 180.915 144.194 169.194C155.915 157.473 162.5 141.576 162.5 125C162.5 109.988 152.55 98.0375 135.238 78.75L134.862 78.35C121.875 63.875 106.25 46.5125 95.2875 22.7625Z" fill="#525252"/>
<path fill-rule="evenodd" clip-rule="evenodd" d="M56.9125 97.2C67.1625 76.6875 78.375 62.7875 83.075 58.075L91.925 66.925C88.3 70.55 77.825 83.3125 68.0875 102.8L56.9125 97.2Z" fill="#525252"/>
</g>
<defs>
<clipPath id="clip0_1_20">
<rect width="200" height="200" fill="white"/>
</clipPath>
</defs>
</svg>
