<svg width="200" height="200" viewBox="0 0 200 200" fill="none" xmlns="http://www.w3.org/2000/svg">
<g clip-path="url(#clip0_108_2)">
<path d="M108.595 17.6598C106.251 15.3164 103.072 14 99.7579 14C96.4433 14 93.2645 15.3164 90.9204 17.6598L7.8329 100.735C7.2518 101.316 6.79084 102.006 6.47635 102.765C6.16187 103.524 6 104.338 6 105.16C6 105.982 6.16187 106.795 6.47635 107.555C6.79084 108.314 7.2518 109.004 7.8329 109.585C9.00648 110.758 10.5982 111.418 12.2579 111.418C13.0797 111.418 13.8934 111.256 14.6527 110.941C15.4119 110.627 16.1018 110.166 16.6829 109.585L24.7579 101.497V167.66C24.7579 172.633 26.7333 177.402 30.2496 180.918C33.7659 184.434 38.5351 186.41 43.5079 186.41H156.008C160.981 186.41 165.75 184.434 169.266 180.918C172.782 177.402 174.758 172.633 174.758 167.66V101.497L182.833 109.585C184.006 110.758 185.598 111.418 187.258 111.418C188.918 111.418 190.509 110.758 191.683 109.585C192.856 108.411 193.516 106.82 193.516 105.16C193.516 103.5 192.856 101.908 191.683 100.735L162.258 71.3223V30.1598C162.258 28.5022 161.599 26.9125 160.427 25.7404C159.255 24.5683 157.665 23.9098 156.008 23.9098H143.508C141.85 23.9098 140.261 24.5683 139.088 25.7404C137.916 26.9125 137.258 28.5022 137.258 30.1598V46.3223L108.595 17.6598ZM162.258 88.9973V167.66C162.258 169.317 161.599 170.907 160.427 172.079C159.255 173.251 157.665 173.91 156.008 173.91H43.5079C41.8503 173.91 40.2606 173.251 39.0885 172.079C37.9164 170.907 37.2579 169.317 37.2579 167.66V88.9973L99.7579 26.4973L162.258 88.9973Z" fill="#525252"/>
</g>
<defs>
<clipPath id="clip0_108_2">
<rect width="200" height="200" fill="white"/>
</clipPath>
</defs>
</svg>
