<svg width="200" height="200" viewBox="0 0 200 200" fill="none" xmlns="http://www.w3.org/2000/svg">
<g clip-path="url(#clip0_1_7)">
<g clip-path="url(#clip1_1_7)">
<path d="M100 137.5C90.0544 137.5 80.5161 133.549 73.4835 126.517C66.4509 119.484 62.5 109.946 62.5 100C62.5 90.0544 66.4509 80.5161 73.4835 73.4835C80.5161 66.4509 90.0544 62.5 100 62.5C109.946 62.5 119.484 66.4509 126.517 73.4835C133.549 80.5161 137.5 90.0544 137.5 100C137.5 109.946 133.549 119.484 126.517 126.517C119.484 133.549 109.946 137.5 100 137.5ZM100 150C113.261 150 125.979 144.732 135.355 135.355C144.732 125.979 150 113.261 150 100C150 86.7392 144.732 74.0215 135.355 64.6447C125.979 55.2678 113.261 50 100 50C86.7392 50 74.0215 55.2678 64.6447 64.6447C55.2678 74.0215 50 86.7392 50 100C50 113.261 55.2678 125.979 64.6447 135.355C74.0215 144.732 86.7392 150 100 150ZM100 0C101.658 0 103.247 0.65848 104.419 1.83058C105.592 3.00269 106.25 4.5924 106.25 6.25V31.25C106.25 32.9076 105.592 34.4973 104.419 35.6694C103.247 36.8415 101.658 37.5 100 37.5C98.3424 37.5 96.7527 36.8415 95.5806 35.6694C94.4085 34.4973 93.75 32.9076 93.75 31.25V6.25C93.75 4.5924 94.4085 3.00269 95.5806 1.83058C96.7527 0.65848 98.3424 0 100 0ZM100 162.5C101.658 162.5 103.247 163.158 104.419 164.331C105.592 165.503 106.25 167.092 106.25 168.75V193.75C106.25 195.408 105.592 196.997 104.419 198.169C103.247 199.342 101.658 200 100 200C98.3424 200 96.7527 199.342 95.5806 198.169C94.4085 196.997 93.75 195.408 93.75 193.75V168.75C93.75 167.092 94.4085 165.503 95.5806 164.331C96.7527 163.158 98.3424 162.5 100 162.5ZM200 100C200 101.658 199.342 103.247 198.169 104.419C196.997 105.592 195.408 106.25 193.75 106.25H168.75C167.092 106.25 165.503 105.592 164.331 104.419C163.158 103.247 162.5 101.658 162.5 100C162.5 98.3424 163.158 96.7527 164.331 95.5806C165.503 94.4085 167.092 93.75 168.75 93.75H193.75C195.408 93.75 196.997 94.4085 198.169 95.5806C199.342 96.7527 200 98.3424 200 100ZM37.5 100C37.5 101.658 36.8415 103.247 35.6694 104.419C34.4973 105.592 32.9076 106.25 31.25 106.25H6.25C4.5924 106.25 3.00269 105.592 1.83058 104.419C0.65848 103.247 0 101.658 0 100C0 98.3424 0.65848 96.7527 1.83058 95.5806C3.00269 94.4085 4.5924 93.75 6.25 93.75H31.25C32.9076 93.75 34.4973 94.4085 35.6694 95.5806C36.8415 96.7527 37.5 98.3424 37.5 100ZM170.712 29.2875C171.884 30.4595 172.542 32.049 172.542 33.7063C172.542 35.3635 171.884 36.953 170.712 38.125L153.038 55.8125C152.456 56.3928 151.767 56.8529 151.008 57.1666C150.249 57.4804 149.436 57.6416 148.614 57.641C146.956 57.6398 145.366 56.9798 144.194 55.8062C143.613 55.2252 143.153 54.5354 142.84 53.7765C142.526 53.0176 142.365 52.2043 142.365 51.3831C142.366 49.7246 143.026 48.1344 144.2 46.9625L161.875 29.2875C163.047 28.1158 164.636 27.4576 166.294 27.4576C167.951 27.4576 169.54 28.1158 170.712 29.2875ZM55.8 144.2C56.9717 145.372 57.6299 146.961 57.6299 148.619C57.6299 150.276 56.9717 151.865 55.8 153.038L38.125 170.712C36.9462 171.851 35.3675 172.481 33.7287 172.467C32.09 172.452 30.5224 171.795 29.3636 170.636C28.2048 169.478 27.5475 167.91 27.5333 166.271C27.519 164.633 28.149 163.054 29.2875 161.875L46.9625 144.2C48.1345 143.028 49.724 142.37 51.3812 142.37C53.0385 142.37 54.628 143.028 55.8 144.2ZM170.712 170.712C169.54 171.884 167.951 172.542 166.294 172.542C164.636 172.542 163.047 171.884 161.875 170.712L144.2 153.038C143.062 151.859 142.432 150.28 142.446 148.641C142.46 147.003 143.117 145.435 144.276 144.276C145.435 143.117 147.003 142.46 148.641 142.446C150.28 142.432 151.859 143.062 153.038 144.2L170.712 161.875C171.884 163.047 172.542 164.636 172.542 166.294C172.542 167.951 171.884 169.54 170.712 170.712ZM55.8 55.8125C54.628 56.9842 53.0385 57.6424 51.3812 57.6424C49.724 57.6424 48.1345 56.9842 46.9625 55.8125L29.2875 38.125C28.6906 37.5485 28.2144 36.8588 27.8869 36.0963C27.5593 35.3338 27.3869 34.5136 27.3797 33.6838C27.3725 32.8539 27.5306 32.0309 27.8449 31.2628C28.1591 30.4947 28.6232 29.7969 29.21 29.21C29.7969 28.6232 30.4947 28.1591 31.2628 27.8449C32.0309 27.5306 32.8539 27.3725 33.6838 27.3797C34.5136 27.3869 35.3338 27.5593 36.0963 27.8869C36.8588 28.2144 37.5485 28.6906 38.125 29.2875L55.8 46.9625C56.382 47.5431 56.8438 48.2328 57.1589 48.9921C57.474 49.7514 57.6362 50.5654 57.6362 51.3875C57.6362 52.2096 57.474 53.0236 57.1589 53.7829C56.8438 54.5422 56.382 55.2319 55.8 55.8125Z" fill="#525252"/>
</g>
</g>
<defs>
<clipPath id="clip0_1_7">
<rect width="200" height="200" fill="white"/>
</clipPath>
<clipPath id="clip1_1_7">
<rect width="200" height="200" fill="white"/>
</clipPath>
</defs>
</svg>
