<svg width="200" height="200" viewBox="0 0 200 200" fill="none" xmlns="http://www.w3.org/2000/svg">
<g clip-path="url(#clip0_1_17)">
<g clip-path="url(#clip1_1_17)">
<path d="M51.975 150.313C52.7542 150.572 53.4745 150.983 54.0948 151.521C54.7151 152.06 55.2231 152.715 55.59 153.45C55.9568 154.185 56.1752 154.985 56.2327 155.804C56.2902 156.624 56.1856 157.446 55.925 158.225L49.675 176.975C49.106 178.488 47.9728 179.722 46.5135 180.417C45.0542 181.113 43.3822 181.215 41.8486 180.704C40.315 180.193 39.0391 179.108 38.2889 177.676C37.5386 176.244 37.3724 174.577 37.825 173.025L44.075 154.275C44.5973 152.702 45.7229 151.401 47.2044 150.658C48.6859 149.915 50.4019 149.791 51.975 150.313ZM89.475 150.313C90.2542 150.572 90.9745 150.983 91.5948 151.521C92.2151 152.06 92.7231 152.715 93.09 153.45C93.4568 154.185 93.6752 154.985 93.7327 155.804C93.7902 156.624 93.6856 157.446 93.425 158.225L80.925 195.725C80.356 197.238 79.2228 198.472 77.7635 199.167C76.3042 199.863 74.6322 199.965 73.0986 199.454C71.565 198.943 70.2891 197.858 69.5389 196.426C68.7886 194.994 68.6224 193.327 69.075 191.775L81.575 154.275C82.0973 152.702 83.2229 151.401 84.7044 150.658C86.1859 149.915 87.9019 149.791 89.475 150.313ZM126.975 150.313C127.754 150.572 128.474 150.983 129.095 151.521C129.715 152.06 130.223 152.715 130.59 153.45C130.957 154.185 131.175 154.985 131.233 155.804C131.29 156.624 131.186 157.446 130.925 158.225L124.675 176.975C124.106 178.488 122.973 179.722 121.513 180.417C120.054 181.113 118.382 181.215 116.849 180.704C115.315 180.193 114.039 179.108 113.289 177.676C112.539 176.244 112.372 174.577 112.825 173.025L119.075 154.275C119.597 152.702 120.723 151.401 122.204 150.658C123.686 149.915 125.402 149.791 126.975 150.313ZM164.475 150.313C165.254 150.572 165.974 150.983 166.595 151.521C167.215 152.06 167.723 152.715 168.09 153.45C168.457 154.185 168.675 154.985 168.733 155.804C168.79 156.624 168.686 157.446 168.425 158.225L155.925 195.725C155.69 196.532 155.294 197.283 154.761 197.934C154.229 198.585 153.57 199.121 152.826 199.511C152.081 199.901 151.265 200.137 150.427 200.205C149.589 200.272 148.746 200.17 147.949 199.904C147.151 199.638 146.415 199.214 145.785 198.658C145.155 198.101 144.644 197.422 144.283 196.664C143.921 195.905 143.716 195.08 143.681 194.24C143.645 193.4 143.779 192.562 144.075 191.775L156.575 154.275C157.097 152.702 158.223 151.401 159.704 150.658C161.186 149.915 162.902 149.791 164.475 150.313ZM167.562 62.8375C164.967 49.752 158.253 37.8401 148.402 28.8435C138.552 19.8469 126.082 14.2373 112.816 12.8351C99.549 11.4329 86.1817 14.3115 74.6683 21.0501C63.1548 27.7887 54.099 38.0338 48.825 50.2875C42.9105 49.6062 36.9191 50.1391 31.2177 51.8538C25.5163 53.5685 20.2249 56.4289 15.6675 60.2597C11.11 64.0906 7.38234 68.8113 4.71276 74.1329C2.04319 79.4544 0.487857 85.2649 0.141992 91.2085C-0.203873 97.1521 0.667009 103.104 2.70132 108.699C4.73562 114.294 7.89055 119.416 11.9729 123.749C16.0553 128.083 20.9792 131.538 26.4432 133.902C31.9073 136.266 37.7964 137.491 43.75 137.5H162.5C172.014 137.511 181.176 133.905 188.131 127.413C195.086 120.922 199.313 112.029 199.957 102.537C200.601 93.0448 197.612 83.663 191.597 76.2917C185.583 68.9205 176.991 64.111 167.562 62.8375ZM106.25 25C118.549 24.9975 130.418 29.5284 139.587 37.7264C148.756 45.9245 154.582 57.2144 155.95 69.4375C156.12 70.9733 156.853 72.3916 158.007 73.4189C159.161 74.4461 160.655 75.0094 162.2 75H162.5C169.13 75 175.489 77.6339 180.178 82.3223C184.866 87.0107 187.5 93.3696 187.5 100C187.5 106.63 184.866 112.989 180.178 117.678C175.489 122.366 169.13 125 162.5 125H43.75C39.3259 124.998 34.9527 124.056 30.9197 122.238C26.8867 120.419 23.2858 117.765 20.3552 114.451C17.4246 111.136 15.2311 107.238 13.9198 103.013C12.6085 98.7872 12.2093 94.3317 12.7486 89.9406C13.2879 85.5495 14.7534 81.323 17.0482 77.5406C19.343 73.7582 22.4147 70.5062 26.0602 67.9996C29.7057 65.4931 33.8419 63.7891 38.1951 63.0005C42.5483 62.2119 47.0194 62.3566 51.3125 63.425C52.8441 63.807 54.4635 63.5953 55.8455 62.8325C57.2275 62.0696 58.2696 60.8121 58.7625 59.3125C62.066 49.3272 68.4327 40.6371 76.9577 34.4773C85.4828 28.3174 95.7324 25.0012 106.25 25Z" fill="#525252"/>
</g>
</g>
<defs>
<clipPath id="clip0_1_17">
<rect width="200" height="200" fill="white"/>
</clipPath>
<clipPath id="clip1_1_17">
<rect width="200" height="200" fill="white"/>
</clipPath>
</defs>
</svg>
