<svg width="200" height="200" viewBox="0 0 200 200" fill="none" xmlns="http://www.w3.org/2000/svg">
<g clip-path="url(#clip0_1_2)">
<g clip-path="url(#clip1_1_2)">
<path d="M75 3.475C76.2202 4.95766 76.9677 6.77215 77.1459 8.68403C77.3242 10.5959 76.925 12.5173 76 14.2C68.7732 27.4684 64.9992 42.3412 65.025 57.45C65.025 107.713 106 148.413 156.5 148.413C163.088 148.413 169.5 147.725 175.663 146.413C177.552 146.003 179.519 146.16 181.32 146.862C183.121 147.565 184.675 148.782 185.787 150.363C186.962 152.006 187.561 153.991 187.491 156.01C187.421 158.028 186.686 159.967 185.4 161.525C175.596 173.568 163.228 183.271 149.198 189.927C135.168 196.583 119.829 200.025 104.3 200C46.675 200 0 153.575 0 96.375C0 53.325 26.425 16.4 64.05 0.75C65.9242 -0.0421019 68.0049 -0.204677 69.9794 0.286696C71.9539 0.778069 73.7156 1.89686 75 3.475ZM60.725 16.3875C46.2575 24.1479 34.163 35.683 25.7266 49.767C17.2903 63.851 12.8275 79.9576 12.8125 96.375C12.8125 146.625 53.8 187.325 104.3 187.325C116.393 187.346 128.37 184.968 139.538 180.329C150.706 175.691 160.843 168.883 169.362 160.3C165.15 160.825 160.863 161.088 156.5 161.088C98.875 161.088 52.2125 114.663 52.2125 57.4625C52.2125 42.875 55.2375 28.9875 60.725 16.3875Z" fill="#525252"/>
</g>
</g>
<defs>
<clipPath id="clip0_1_2">
<rect width="200" height="200" fill="white"/>
</clipPath>
<clipPath id="clip1_1_2">
<rect width="200" height="200" fill="white"/>
</clipPath>
</defs>
</svg>
