<svg width="200" height="200" viewBox="0 0 200 200" fill="none" xmlns="http://www.w3.org/2000/svg">
<g clip-path="url(#clip0_106_12)">
<g clip-path="url(#clip1_106_12)">
<path d="M167.515 51.145C164.919 37.8526 158.205 25.7523 148.353 16.6134C138.502 7.47445 126.03 1.77622 112.762 0.351826C99.4934 -1.07256 86.1245 1.8516 74.6096 8.69676C63.0947 15.5419 54.0377 25.9491 48.763 38.3965C42.8478 37.7044 36.8556 38.2458 31.1535 39.9876C25.4514 41.7295 20.1594 44.635 15.6013 48.5264C11.0433 52.4179 7.31516 57.2132 4.64525 62.619C1.97533 68.0247 0.419806 73.9271 0.0738981 79.9647C-0.27201 86.0023 0.598981 92.048 2.63354 97.7318C4.66811 103.416 7.82343 108.618 11.9063 113.02C15.9892 117.422 20.9138 120.932 26.3785 123.333C31.8432 125.735 37.733 126.979 43.6874 126.988H162.452C171.967 126.999 181.131 123.337 188.087 116.742C195.042 110.148 199.27 101.114 199.914 91.4722C200.558 81.8301 197.569 72.2998 191.553 64.812C185.538 57.3242 176.945 52.4386 167.515 51.145ZM106.195 12.7091C118.496 12.7065 130.367 17.3091 139.537 25.6368C148.707 33.9645 154.533 45.433 155.902 57.8494C156.071 59.4094 156.804 60.8502 157.959 61.8937C159.113 62.9372 160.607 63.5094 162.152 63.4999H162.452C169.084 63.5015 175.443 66.1787 180.13 70.9425C184.818 75.7062 187.451 82.1663 187.449 88.9016C187.448 95.6369 184.812 102.096 180.122 106.857C175.431 111.618 169.071 114.292 162.44 114.291H43.6874C39.2628 114.288 34.889 113.332 30.8555 111.485C26.822 109.637 23.2206 106.941 20.2896 103.574C17.3587 100.208 15.1649 96.2475 13.8534 91.9554C12.542 87.6633 12.1427 83.1372 12.6821 78.6767C13.2215 74.2162 14.6872 69.9228 16.9822 66.0806C19.2773 62.2384 22.3494 58.9349 25.9954 56.3887C29.6413 53.8425 33.778 52.1117 38.1318 51.3106C42.4856 50.5095 46.9572 50.6565 51.2508 51.7418C52.7826 52.1299 54.4023 51.9148 55.7844 51.1399C57.1665 50.365 58.2088 49.0876 58.7018 47.5643C62.0057 37.421 68.3732 28.5935 76.8993 22.3362C85.4254 16.079 95.6763 12.7104 106.195 12.7091ZM32.7485 142.86C33.5774 142.86 34.3724 143.195 34.9585 143.79C35.5446 144.385 35.8739 145.193 35.8739 146.035V153.273L42.1372 149.628C42.8552 149.234 43.6964 149.141 44.4811 149.368C45.2659 149.596 45.9319 150.126 46.3368 150.846C46.7417 151.566 46.8534 152.418 46.648 153.22C46.4426 154.022 45.9364 154.711 45.2376 155.139L39.0493 158.733L45.2376 162.326C45.9364 162.754 46.4426 163.443 46.648 164.245C46.8534 165.047 46.7417 165.899 46.3368 166.619C45.9319 167.339 45.2659 167.869 44.4811 168.097C43.6964 168.324 42.8552 168.231 42.1372 167.837L35.8739 164.205V171.43C35.8739 172.272 35.5446 173.08 34.9585 173.675C34.3724 174.27 33.5774 174.605 32.7485 174.605C31.9196 174.605 31.1247 174.27 30.5385 173.675C29.9524 173.08 29.6231 172.272 29.6231 171.43V164.193L23.3598 167.837C22.6419 168.231 21.8006 168.324 21.0159 168.097C20.2311 167.869 19.5652 167.339 19.1603 166.619C18.7554 165.899 18.6437 165.047 18.8491 164.245C19.0545 163.443 19.5607 162.754 20.2594 162.326L26.4477 158.733L20.2594 155.139C19.5607 154.711 19.0545 154.022 18.8491 153.22C18.6437 152.418 18.7554 151.566 19.1603 150.846C19.5652 150.126 20.2311 149.596 21.0159 149.368C21.8006 149.141 22.6419 149.234 23.3598 149.628L29.6231 153.26V146.035C29.6231 145.193 29.9524 144.385 30.5385 143.79C31.1247 143.195 31.9196 142.86 32.7485 142.86ZM67.1278 168.256C67.9568 168.256 68.7517 168.59 69.3378 169.186C69.924 169.781 70.2532 170.588 70.2532 171.43V178.668L76.5165 175.024C77.2345 174.63 78.0757 174.536 78.8605 174.764C79.6452 174.991 80.3112 175.522 80.7161 176.241C81.121 176.961 81.2327 177.813 81.0273 178.615C80.8219 179.417 80.3157 180.106 79.6169 180.534L73.4286 184.128L79.6169 187.721C80.3157 188.15 80.8219 188.838 81.0273 189.641C81.2327 190.443 81.121 191.295 80.7161 192.014C80.3112 192.734 79.6452 193.264 78.8605 193.492C78.0757 193.719 77.2345 193.626 76.5165 193.232L70.2532 189.601V196.826C70.2532 197.667 69.924 198.475 69.3378 199.07C68.7517 199.666 67.9568 200 67.1278 200C66.2989 200 65.504 199.666 64.9179 199.07C64.3317 198.475 64.0025 197.667 64.0025 196.826V189.588L57.7392 193.232C57.0212 193.626 56.18 193.719 55.3952 193.492C54.6105 193.264 53.9445 192.734 53.5396 192.014C53.1347 191.295 53.023 190.443 53.2284 189.641C53.4338 188.838 53.94 188.15 54.6388 187.721L60.827 184.128L54.6388 180.534C53.94 180.106 53.4338 179.417 53.2284 178.615C53.023 177.813 53.1347 176.961 53.5396 176.241C53.9445 175.522 54.6105 174.991 55.3952 174.764C56.18 174.536 57.0212 174.63 57.7392 175.024L64.0025 178.655V171.43C64.0025 170.588 64.3317 169.781 64.9179 169.186C65.504 168.59 66.2989 168.256 67.1278 168.256ZM135.886 168.256C136.715 168.256 137.51 168.59 138.096 169.186C138.683 169.781 139.012 170.588 139.012 171.43V178.668L145.275 175.024C145.993 174.63 146.834 174.536 147.619 174.764C148.404 174.991 149.07 175.522 149.475 176.241C149.88 176.961 149.991 177.813 149.786 178.615C149.581 179.417 149.074 180.106 148.376 180.534L142.187 184.128L148.376 187.721C149.074 188.15 149.581 188.838 149.786 189.641C149.991 190.443 149.88 191.295 149.475 192.014C149.07 192.734 148.404 193.264 147.619 193.492C146.834 193.719 145.993 193.626 145.275 193.232L139.012 189.601V196.826C139.012 197.667 138.683 198.475 138.096 199.07C137.51 199.666 136.715 200 135.886 200C135.058 200 134.263 199.666 133.677 199.07C133.09 198.475 132.761 197.667 132.761 196.826V189.588L126.498 193.232C125.78 193.626 124.939 193.719 124.154 193.492C123.369 193.264 122.703 192.734 122.298 192.014C121.893 191.295 121.782 190.443 121.987 189.641C122.192 188.838 122.699 188.15 123.397 187.721L129.586 184.128L123.397 180.534C122.699 180.106 122.192 179.417 121.987 178.615C121.782 177.813 121.893 176.961 122.298 176.241C122.703 175.522 123.369 174.991 124.154 174.764C124.939 174.536 125.78 174.63 126.498 175.024L132.761 178.655V171.43C132.761 170.588 133.09 169.781 133.677 169.186C134.263 168.59 135.058 168.256 135.886 168.256ZM101.507 142.86C102.336 142.86 103.131 143.195 103.717 143.79C104.303 144.385 104.633 145.193 104.633 146.035V153.273L110.896 149.628C111.614 149.234 112.455 149.141 113.24 149.368C114.025 149.596 114.691 150.126 115.095 150.846C115.5 151.566 115.612 152.418 115.407 153.22C115.201 154.022 114.695 154.711 113.996 155.139L107.808 158.733L113.996 162.326C114.695 162.754 115.201 163.443 115.407 164.245C115.612 165.047 115.5 165.899 115.095 166.619C114.691 167.339 114.025 167.869 113.24 168.097C112.455 168.324 111.614 168.231 110.896 167.837L104.633 164.205V171.43C104.633 172.272 104.303 173.08 103.717 173.675C103.131 174.27 102.336 174.605 101.507 174.605C100.678 174.605 99.8833 174.27 99.2972 173.675C98.7111 173.08 98.3818 172.272 98.3818 171.43V164.193L92.1185 167.837C91.4005 168.231 90.5593 168.324 89.7745 168.097C88.9898 167.869 88.3238 167.339 87.9189 166.619C87.514 165.899 87.4023 165.047 87.6077 164.245C87.8131 163.443 88.3193 162.754 89.0181 162.326L95.2064 158.733L89.0181 155.139C88.3193 154.711 87.8131 154.022 87.6077 153.22C87.4023 152.418 87.514 151.566 87.9189 150.846C88.3238 150.126 88.9898 149.596 89.7745 149.368C90.5593 149.141 91.4005 149.234 92.1185 149.628L98.3818 153.26V146.035C98.3818 145.193 98.7111 144.385 99.2972 143.79C99.8833 143.195 100.678 142.86 101.507 142.86ZM170.266 142.86C171.095 142.86 171.89 143.195 172.476 143.79C173.062 144.385 173.391 145.193 173.391 146.035V153.273L179.655 149.628C180.372 149.234 181.214 149.141 181.998 149.368C182.783 149.596 183.449 150.126 183.854 150.846C184.259 151.566 184.371 152.418 184.165 153.22C183.96 154.022 183.454 154.711 182.755 155.139L176.567 158.733L182.755 162.326C183.454 162.754 183.96 163.443 184.165 164.245C184.371 165.047 184.259 165.899 183.854 166.619C183.449 167.339 182.783 167.869 181.998 168.097C181.214 168.324 180.372 168.231 179.655 167.837L173.391 164.205V171.43C173.391 172.272 173.062 173.08 172.476 173.675C171.89 174.27 171.095 174.605 170.266 174.605C169.437 174.605 168.642 174.27 168.056 173.675C167.47 173.08 167.14 172.272 167.14 171.43V164.193L160.877 167.837C160.159 168.231 159.318 168.324 158.533 168.097C157.748 167.869 157.082 167.339 156.678 166.619C156.273 165.899 156.161 165.047 156.366 164.245C156.572 163.443 157.078 162.754 157.777 162.326L163.965 158.733L157.777 155.139C157.078 154.711 156.572 154.022 156.366 153.22C156.161 152.418 156.273 151.566 156.678 150.846C157.082 150.126 157.748 149.596 158.533 149.368C159.318 149.141 160.159 149.234 160.877 149.628L167.14 153.26V146.035C167.14 145.193 167.47 144.385 168.056 143.79C168.642 143.195 169.437 142.86 170.266 142.86Z" fill="#525252"/>
</g>
</g>
<defs>
<clipPath id="clip0_106_12">
<rect width="200" height="200" fill="white"/>
</clipPath>
<clipPath id="clip1_106_12">
<rect width="200" height="200" fill="white"/>
</clipPath>
</defs>
</svg>
