<svg width="200" height="200" viewBox="0 0 200 200" fill="none" xmlns="http://www.w3.org/2000/svg">
<g clip-path="url(#clip0_101_2)">
<g clip-path="url(#clip1_101_2)">
<path d="M100 150C86.7392 150 74.0215 144.732 64.6447 135.355C55.2678 125.979 50 113.261 50 100C50 86.7392 55.2678 74.0215 64.6447 64.6447C74.0215 55.2678 86.7392 50 100 50C113.261 50 125.979 55.2678 135.355 64.6447C144.732 74.0215 150 86.7392 150 100C150 113.261 144.732 125.979 135.355 135.355C125.979 144.732 113.261 150 100 150ZM100 166.667C117.681 166.667 134.638 159.643 147.14 147.14C159.643 134.638 166.667 117.681 166.667 100C166.667 82.3189 159.643 65.362 147.14 52.8595C134.638 40.3571 117.681 33.3333 100 33.3333C82.3189 33.3333 65.362 40.3571 52.8595 52.8595C40.3571 65.362 33.3333 82.3189 33.3333 100C33.3333 117.681 40.3571 134.638 52.8595 147.14C65.362 159.643 82.3189 166.667 100 166.667ZM108.333 8.33333C108.333 10.5435 107.455 12.6631 105.893 14.2259C104.33 15.7887 102.21 16.6667 100 16.6667C97.7899 16.6667 95.6702 15.7887 94.1074 14.2259C92.5446 12.6631 91.6667 10.5435 91.6667 8.33333C91.6667 6.1232 92.5446 4.00358 94.1074 2.44078C95.6702 0.877975 97.7899 0 100 0C102.21 0 104.33 0.877975 105.893 2.44078C107.455 4.00358 108.333 6.1232 108.333 8.33333ZM108.333 191.667C108.333 193.877 107.455 195.996 105.893 197.559C104.33 199.122 102.21 200 100 200C97.7899 200 95.6702 199.122 94.1074 197.559C92.5446 195.996 91.6667 193.877 91.6667 191.667C91.6667 189.457 92.5446 187.337 94.1074 185.774C95.6702 184.211 97.7899 183.333 100 183.333C102.21 183.333 104.33 184.211 105.893 185.774C107.455 187.337 108.333 189.457 108.333 191.667ZM191.667 108.333C189.457 108.333 187.337 107.455 185.774 105.893C184.211 104.33 183.333 102.21 183.333 100C183.333 97.7899 184.211 95.6702 185.774 94.1074C187.337 92.5446 189.457 91.6667 191.667 91.6667C193.877 91.6667 195.996 92.5446 197.559 94.1074C199.122 95.6702 200 97.7899 200 100C200 102.21 199.122 104.33 197.559 105.893C195.996 107.455 193.877 108.333 191.667 108.333ZM8.33333 108.333C6.1232 108.333 4.00358 107.455 2.44078 105.893C0.877975 104.33 0 102.21 0 100C0 97.7899 0.877975 95.6702 2.44078 94.1074C4.00358 92.5446 6.1232 91.6667 8.33333 91.6667C10.5435 91.6667 12.6631 92.5446 14.2259 94.1074C15.7887 95.6702 16.6667 97.7899 16.6667 100C16.6667 102.21 15.7887 104.33 14.2259 105.893C12.6631 107.455 10.5435 108.333 8.33333 108.333ZM170.717 41.0667C169.948 41.8626 169.028 42.4974 168.012 42.9342C166.995 43.3709 165.902 43.6008 164.795 43.6104C163.689 43.62 162.591 43.4092 161.567 42.9902C160.543 42.5712 159.612 41.9524 158.83 41.17C158.048 40.3875 157.429 39.4571 157.01 38.4329C156.591 37.4088 156.38 36.3115 156.39 35.205C156.399 34.0985 156.629 33.005 157.066 31.9883C157.503 30.9716 158.137 30.0521 158.933 29.2833C160.505 27.7653 162.61 26.9254 164.795 26.9444C166.98 26.9634 169.07 27.8398 170.615 29.3848C172.16 30.9299 173.037 33.02 173.056 35.205C173.075 37.39 172.235 39.495 170.717 41.0667ZM41.0667 170.717C40.2979 171.513 39.3784 172.147 38.3617 172.584C37.345 173.021 36.2515 173.251 35.145 173.26C34.0385 173.27 32.9412 173.059 31.917 172.64C30.8929 172.221 29.9625 171.602 29.18 170.82C28.3976 170.038 27.7788 169.107 27.3598 168.083C26.9408 167.059 26.73 165.961 26.7396 164.855C26.7492 163.748 26.9791 162.655 27.4158 161.638C27.8526 160.622 28.4874 159.702 29.2833 158.933C30.855 157.415 32.96 156.575 35.145 156.594C37.33 156.613 39.4201 157.49 40.9651 159.035C42.5102 160.58 43.3866 162.67 43.4056 164.855C43.4246 167.04 42.5847 169.145 41.0667 170.717ZM158.933 170.717C158.137 169.948 157.503 169.028 157.066 168.012C156.629 166.995 156.399 165.902 156.39 164.795C156.38 163.689 156.591 162.591 157.01 161.567C157.429 160.543 158.048 159.612 158.83 158.83C159.612 158.048 160.543 157.429 161.567 157.01C162.591 156.591 163.689 156.38 164.795 156.39C165.902 156.399 166.995 156.629 168.012 157.066C169.028 157.503 169.948 158.137 170.717 158.933C172.235 160.505 173.075 162.61 173.056 164.795C173.037 166.98 172.16 169.07 170.615 170.615C169.07 172.16 166.98 173.037 164.795 173.056C162.61 173.075 160.505 172.235 158.933 170.717ZM29.2833 41.0667C28.4874 40.2979 27.8526 39.3784 27.4158 38.3617C26.9791 37.345 26.7492 36.2515 26.7396 35.145C26.73 34.0385 26.9408 32.9412 27.3598 31.917C27.7788 30.8929 28.3976 29.9625 29.18 29.18C29.9625 28.3976 30.8929 27.7788 31.917 27.3598C32.9412 26.9408 34.0385 26.73 35.145 26.7396C36.2515 26.7492 37.345 26.9791 38.3617 27.4158C39.3784 27.8526 40.2979 28.4874 41.0667 29.2833C42.5847 30.855 43.4246 32.96 43.4056 35.145C43.3866 37.33 42.5102 39.4201 40.9651 40.9651C39.4201 42.5102 37.33 43.3866 35.145 43.4056C32.96 43.4246 30.855 42.5847 29.2833 41.0667Z" fill="#525252"/>
</g>
</g>
<defs>
<clipPath id="clip0_101_2">
<rect width="200" height="200" fill="white"/>
</clipPath>
<clipPath id="clip1_101_2">
<rect width="200" height="200" fill="white"/>
</clipPath>
</defs>
</svg>
