<svg width="200" height="200" viewBox="0 0 200 200" fill="none" xmlns="http://www.w3.org/2000/svg">
<g clip-path="url(#clip0_105_7)">
<path d="M51.9069 143.824C52.6861 144.084 53.4064 144.494 54.0267 145.033C54.6469 145.571 55.155 146.226 55.5219 146.961C55.8887 147.696 56.1071 148.496 56.1646 149.315C56.2221 150.135 56.1175 150.957 55.8569 151.736L49.6069 170.486C49.0379 171.999 47.9047 173.233 46.4454 173.928C44.9861 174.624 43.3141 174.727 41.7805 174.216C40.2469 173.704 38.971 172.619 38.2208 171.187C37.4705 169.755 37.3043 168.088 37.7569 166.536L44.0069 147.786C44.5292 146.213 45.6548 144.912 47.1363 144.169C48.6178 143.426 50.3338 143.302 51.9069 143.824ZM126.907 143.824C127.686 144.084 128.406 144.494 129.027 145.033C129.647 145.571 130.155 146.226 130.522 146.961C130.889 147.696 131.107 148.496 131.165 149.315C131.222 150.135 131.118 150.957 130.857 151.736L124.607 170.486C124.038 171.999 122.905 173.233 121.445 173.928C119.986 174.624 118.314 174.727 116.78 174.216C115.247 173.704 113.971 172.619 113.221 171.187C112.471 169.755 112.304 168.088 112.757 166.536L119.007 147.786C119.529 146.213 120.655 144.912 122.136 144.169C123.618 143.426 125.334 143.302 126.907 143.824ZM83.1569 162.574C83.9361 162.834 84.6564 163.244 85.2767 163.783C85.8969 164.321 86.405 164.976 86.7719 165.711C87.1387 166.446 87.3571 167.246 87.4146 168.065C87.4721 168.885 87.3675 169.707 87.1069 170.486L80.8569 189.236C80.2879 190.749 79.1547 191.983 77.6954 192.678C76.2361 193.374 74.5641 193.477 73.0305 192.966C71.4969 192.454 70.221 191.369 69.4708 189.937C68.7205 188.505 68.5543 186.838 69.0069 185.286L75.2569 166.536C75.7792 164.963 76.9048 163.662 78.3863 162.919C79.8678 162.176 81.5838 162.052 83.1569 162.574ZM158.157 162.574C158.936 162.834 159.656 163.244 160.277 163.783C160.897 164.321 161.405 164.976 161.772 165.711C162.139 166.446 162.357 167.246 162.415 168.065C162.472 168.885 162.368 169.707 162.107 170.486L155.857 189.236C155.621 190.043 155.226 190.795 154.693 191.445C154.161 192.096 153.502 192.632 152.758 193.022C152.013 193.413 151.197 193.648 150.359 193.716C149.521 193.784 148.678 193.681 147.88 193.416C147.083 193.15 146.347 192.726 145.717 192.169C145.087 191.612 144.576 190.934 144.215 190.175C143.853 189.416 143.648 188.592 143.613 187.752C143.577 186.912 143.711 186.073 144.007 185.286L150.257 166.536C150.779 164.963 151.905 163.662 153.386 162.919C154.868 162.176 156.584 162.052 158.157 162.574ZM167.494 56.3487C164.899 43.2633 158.185 31.3514 148.334 22.3547C138.484 13.3581 126.014 7.74856 112.747 6.34635C99.4809 4.94413 86.1136 7.82277 74.6002 14.5614C63.0867 21.3 54.0309 31.5451 48.7569 43.7987C42.8424 43.1174 36.851 43.6504 31.1496 45.3651C25.4482 47.0798 20.1568 49.9401 15.5994 53.7709C11.0419 57.6018 7.31424 62.3225 4.64466 67.6441C1.97509 72.9657 0.419754 78.7761 0.0738888 84.7197C-0.271976 90.6633 0.598906 96.615 2.63321 102.21C4.66752 107.806 7.82245 112.927 11.9048 117.26C15.9872 121.594 20.9111 125.049 26.3751 127.413C31.8392 129.778 37.7283 131.002 43.6819 131.011H162.432C171.946 131.022 181.108 127.416 188.063 120.925C195.018 114.433 199.245 105.54 199.889 96.0481C200.532 86.5561 197.544 77.1742 191.529 69.803C185.514 62.4317 176.923 57.6222 167.494 56.3487ZM106.182 18.5112C118.481 18.5087 130.35 23.0396 139.519 31.2377C148.688 39.4357 154.514 50.7256 155.882 62.9487C156.052 64.4845 156.785 65.9028 157.939 66.9301C159.093 67.9573 160.587 68.5206 162.132 68.5112H162.432C169.062 68.5112 175.421 71.1452 180.11 75.8336C184.798 80.522 187.432 86.8808 187.432 93.5112C187.432 100.142 184.798 106.5 180.11 111.189C175.421 115.877 169.062 118.511 162.432 118.511H43.6819C39.2578 118.509 34.8846 117.568 30.8516 115.749C26.8186 113.93 23.2177 111.276 20.2871 107.962C17.3565 104.648 15.163 100.749 13.8517 96.5237C12.5404 92.2985 12.1412 87.8429 12.6805 83.4518C13.2198 79.0607 14.6853 74.8342 16.9801 71.0518C19.2749 67.2694 22.3466 64.0174 25.9921 61.5108C29.6376 59.0043 33.7738 57.3003 38.127 56.5117C42.4802 55.7231 46.9513 55.8678 51.2444 56.9362C52.776 57.3183 54.3954 57.1066 55.7774 56.3437C57.1594 55.5809 58.2015 54.3233 58.6944 52.8237C61.9979 42.8384 68.3646 34.1483 76.8896 27.9885C85.4146 21.8287 95.6643 18.5125 106.182 18.5112Z" fill="#525252"/>
</g>
<defs>
<clipPath id="clip0_105_7">
<rect width="200" height="200" fill="white"/>
</clipPath>
</defs>
</svg>
