<svg width="200" height="200" viewBox="0 0 200 200" fill="none" xmlns="http://www.w3.org/2000/svg">
<g clip-path="url(#clip0_107_2)">
<g clip-path="url(#clip1_107_2)">
<path d="M167.515 50.3507C164.919 37.2647 158.205 25.3524 148.353 16.3554C138.502 7.35837 126.03 1.74863 112.762 0.346363C99.4934 -1.05591 86.1245 1.82284 74.6096 8.5617C63.0947 15.3006 54.0377 25.5461 48.763 37.8002C42.8478 37.1189 36.8556 37.6519 31.1535 39.3666C25.4514 41.0814 20.1594 43.9419 15.6013 47.7728C11.0433 51.6038 7.31516 56.3247 4.64525 61.6465C1.97533 66.9683 0.419806 72.779 0.0738981 78.7229C-0.27201 84.6667 0.598981 90.6186 2.63354 96.2141C4.66811 101.81 7.82343 106.931 11.9063 111.265C15.9892 115.599 20.9138 119.054 26.3785 121.418C31.8432 123.783 37.733 125.007 43.6874 125.016H162.452C171.967 125.027 181.131 121.421 188.087 114.929C195.042 108.437 199.27 99.5442 199.914 90.0517C200.558 80.5593 197.569 71.177 191.553 63.8055C185.538 56.434 176.945 51.6243 167.515 50.3507ZM106.195 12.5117C118.496 12.5092 130.367 17.0403 139.537 25.2387C148.707 33.437 154.533 44.7274 155.902 56.951C156.071 58.4868 156.804 59.9052 157.959 60.9325C159.113 61.9598 160.607 62.5231 162.152 62.5137H162.452C169.084 62.5137 175.443 65.1477 180.132 69.8363C184.821 74.5249 187.455 80.884 187.455 87.5147C187.455 94.1454 184.821 100.504 180.132 105.193C175.443 109.882 169.084 112.516 162.452 112.516H43.6874C39.2628 112.514 34.889 111.572 30.8555 109.753C26.822 107.935 23.2206 105.28 20.2896 101.966C17.3587 98.6516 15.1649 94.7528 13.8534 90.5273C12.542 86.3019 12.1427 81.8461 12.6821 77.4549C13.2215 73.0636 14.6872 68.8369 16.9822 65.0544C19.2773 61.2719 22.3494 58.0197 25.9954 55.513C29.6413 53.0064 33.778 51.3024 38.1318 50.5137C42.4856 49.7251 46.9572 49.8698 51.2508 50.9383C52.7826 51.3203 54.4023 51.1086 55.7844 50.3457C57.1665 49.5828 58.2088 48.3252 58.7018 46.8256C62.0057 36.8399 68.3732 28.1494 76.8993 21.9894C85.4254 15.8293 95.6763 12.513 106.195 12.5117ZM88.1055 140.967C88.6251 139.93 89.423 139.058 90.4099 138.449C91.3968 137.839 92.5338 137.517 93.6937 137.517H106.195C107.185 137.517 108.161 137.753 109.042 138.205C109.923 138.656 110.684 139.311 111.262 140.114C111.841 140.917 112.221 141.846 112.37 142.824C112.519 143.803 112.434 144.803 112.121 145.742L108.621 156.267H118.697C119.873 156.269 121.025 156.603 122.02 157.23C123.015 157.856 123.813 158.751 124.323 159.812C124.832 160.872 125.032 162.054 124.899 163.223C124.766 164.391 124.306 165.499 123.572 166.418L98.5693 197.669C97.6772 198.777 96.4338 199.548 95.0444 199.854C93.655 200.16 92.2029 199.983 90.9278 199.352C89.6527 198.721 88.631 197.674 88.0315 196.384C87.432 195.094 87.2905 193.638 87.6304 192.256L91.9435 175.018H81.1921C80.1262 175.018 79.078 174.746 78.1471 174.226C77.2162 173.707 76.4336 172.958 75.8736 172.051C75.3136 171.145 74.9949 170.11 74.9477 169.045C74.9005 167.98 75.1264 166.921 75.6039 165.968L88.1055 140.967Z" fill="#525252"/>
</g>
</g>
<defs>
<clipPath id="clip0_107_2">
<rect width="200" height="200" fill="white"/>
</clipPath>
<clipPath id="clip1_107_2">
<rect width="200" height="200" fill="white"/>
</clipPath>
</defs>
</svg>
